<svg xmlns="http://www.w3.org/2000/svg" viewBox="0 0 1280 720">
  <defs>
    <linearGradient id="bgGrad" x1="0%" y1="0%" x2="100%" y2="100%">
      <stop offset="0%" stop-color="#FF6B35"/>
      <stop offset="50%" stop-color="#FF8C42"/>
      <stop offset="100%" stop-color="#FFA500"/>
    </linearGradient>
    <radialGradient id="centerGlow" cx="50%" cy="50%" r="50%">
      <stop offset="0%" stop-color="#FFFFFF" stop-opacity="0.15"/>
      <stop offset="100%" stop-color="#FFFFFF" stop-opacity="0"/>
    </radialGradient>
  </defs>

  <rect width="1280" height="720" fill="url(#bgGrad)"/>

  <g id="decorations">
    <circle cx="640" cy="360" r="380" fill="url(#centerGlow)"/>
    
    <circle cx="180" cy="140" r="160" fill="#FFFFFF" opacity="0.08"/>
    <circle cx="1120" cy="580" r="200" fill="#FFFFFF" opacity="0.06"/>
    <circle cx="980" cy="120" r="110" fill="#FFA500" opacity="0.25"/>
    <circle cx="140" cy="560" r="130" fill="#FF6B35" opacity="0.18"/>
    
    <path d="M -40 380 Q 320 180 640 340 T 1320 260" fill="none" stroke="#FFFFFF" stroke-width="3" opacity="0.2" stroke-dasharray="12,16"/>
    <path d="M 120 640 Q 420 480 640 560 T 1220 420" fill="none" stroke="#FFFFFF" stroke-width="2" opacity="0.15"/>
    
    <circle cx="280" cy="260" r="9" fill="#FFFFFF" opacity="0.6"/>
    <circle cx="480" cy="310" r="13" fill="#FFFFFF" opacity="0.45"/>
    <circle cx="780" cy="290" r="11" fill="#FFFFFF" opacity="0.55"/>
    <circle cx="980" cy="360" r="15" fill="#FFFFFF" opacity="0.35"/>
    <circle cx="680" cy="460" r="10" fill="#FFFFFF" opacity="0.5"/>
    <circle cx="420" cy="490" r="12" fill="#FFFFFF" opacity="0.4"/>
    
    <g transform="translate(160, 290)" opacity="0.75">
      <path d="M10 0 L22 16 L10 32 L-2 16 Z" fill="#FFFFFF"/>
      <circle cx="10" cy="16" r="5" fill="#FF6B35"/>
    </g>
    <g transform="translate(1060, 210)" opacity="0.65">
      <path d="M0 12 L12 0 L24 12 L12 24 Z" fill="#FFFFFF"/>
      <circle cx="12" cy="12" r="4" fill="#FFA500"/>
    </g>
    <g transform="translate(620, 100)" opacity="0.5">
      <path d="M0 10 L10 0 L20 10 L10 20 Z" fill="#FFFFFF"/>
      <circle cx="10" cy="10" r="3" fill="#FF8C42"/>
    </g>
  </g>

  <g id="content">
    <text x="640" y="315" font-family="Arial, Helvetica, sans-serif" font-size="68" font-weight="bold" fill="#FFFFFF" text-anchor="middle" letter-spacing="2">FDE：连接技术与业务的前线工程师</text>
    
    <text x="640" y="405" font-family="Arial, Helvetica, sans-serif" font-size="34" font-weight="normal" fill="#FFFFFF" text-anchor="middle" opacity="0.95">Forward Deployed Engineer — 角色 · 价值 · 路径</text>
    
    <text x="575" y="405" font-size="32">🔗</text>
    <text x="705" y="405" font-size="32">⚡</text>
    
    <text x="640" y="665" font-family="Arial, Helvetica, sans-serif" font-size="26" font-weight="bold" fill="#FFFFFF" text-anchor="middle" opacity="0.85">01 / 09</text>
    
    <rect x="540" y="685" width="200" height="5" rx="2.5" fill="#FFFFFF" opacity="0.5"/>
  </g>
</svg>