<svg xmlns="http://www.w3.org/2000/svg" viewBox="0 0 1280 720" width="100%" height="100%">
  <rect width="1280" height="720" fill="#F8FAFC"/>
  
  <g id="header">
    <text x="640" y="85" font-family="system-ui, -apple-system, 'Segoe UI', Roboto, Helvetica, Arial, sans-serif" font-size="46" font-weight="800" fill="#0F172A" text-anchor="middle">关键技术深度解析</text>
    <line x1="520" y1="115" x2="760" y2="115" stroke="#3B82F6" stroke-width="4" stroke-linecap="round"/>
  </g>

  <g id="card-1-knowledge-rep">
    <rect x="100" y="150" width="520" height="230" rx="16" fill="#FFFFFF" stroke="#E2E8F0" stroke-width="1"/>
    <rect x="100" y="150" width="520" height="4" fill="#3B82F6" rx="2"/>
    <circle cx="150" cy="200" r="26" fill="#EFF6FF"/>
    <path d="M138 200h24M150 188v24M142 192l16 16M158 192l-16 16" stroke="#3B82F6" stroke-width="2.5" stroke-linecap="round"/>
    <text x="200" y="198" font-family="system-ui, -apple-system, sans-serif" font-size="22" font-weight="700" fill="#0F172A">知识表示学习</text>
    <text x="140" y="240" font-family="system-ui, -apple-system, sans-serif" font-size="15" fill="#475569">TransE / RotatE / 图嵌入向量空间映射</text>
  </g>

  <g id="card-2-gnn">
    <rect x="660" y="150" width="520" height="230" rx="16" fill="#FFFFFF" stroke="#E2E8F0" stroke-width="1"/>
    <rect x="660" y="150" width="520" height="4" fill="#7C3AED" rx="2"/>
    <circle cx="710" cy="200" r="26" fill="#F5F3FF"/>
    <path d="M696 192h28M696 200h28M696 208h28M704 192v16M716 192v16" stroke="#7C3AED" stroke-width="2.5" stroke-linecap="round"/>
    <text x="760" y="198" font-family="system-ui, -apple-system, sans-serif" font-size="22" font-weight="700" fill="#0F172A">图神经网络</text>
    <text x="700" y="240" font-family="system-ui, -apple-system, sans-serif" font-size="15" fill="#475569">GCN、GAT 在图结构特征提取与传播</text>
  </g>

  <g id="card-3-completion">
    <rect x="100" y="420" width="520" height="230" rx="16" fill="#FFFFFF" stroke="#E2E8F0" stroke-width="1"/>
    <rect x="100" y="420" width="520" height="4" fill="#059669" rx="2"/>
    <circle cx="150" cy="470" r="26" fill="#ECFDF5"/>
    <path d="M136 462 Q150 450 164 462 M136 478 Q150 490 164 478 M150 456v28" stroke="#059669" stroke-width="2.5" stroke-linecap="round" fill="none"/>
    <circle cx="140" cy="462" r="3" fill="#059669"/>
    <circle cx="160" cy="478" r="3" fill="#059669"/>
    <line x1="140" y1="462" x2="160" y2="478" stroke="#059669" stroke-width="1.5" stroke-dasharray="4 3"/>
    <text x="200" y="468" font-family="system-ui, -apple-system, sans-serif" font-size="22" font-weight="700" fill="#0F172A">知识图谱补全</text>
    <text x="140" y="510" font-family="system-ui, -apple-system, sans-serif" font-size="15" fill="#475569">链接预测算法与缺失关系自动补全</text>
  </g>

  <g id="card-4-fusion">
    <rect x="660" y="420" width="520" height="230" rx="16" fill="#FFFFFF" stroke="#E2E8F0" stroke-width="1"/>
    <rect x="660" y="420" width="520" height="4" fill="#D97706" rx="2"/>
    <circle cx="710" cy="470" r="26" fill="#FFFBEB"/>
    <path d="M696 460h28v20h-28z" stroke="#D97706" stroke-width="2.5" fill="none"/>
    <path d="M702 466h16M702 472h16M702 478h10" stroke="#D97706" stroke-width="2.5" stroke-linecap="round"/>
    <circle cx="716" cy="464" r="3" fill="#D97706"/>
    <text x="760" y="468" font-family="system-ui, -apple-system, sans-serif" font-size="22" font-weight="700" fill="#0F172A">大模型融合</text>
    <text x="700" y="510" font-family="system-ui, -apple-system, sans-serif" font-size="15" fill="#475569">RAG + KG 增强生成式AI事实准确性</text>
  </g>

  <g id="footer">
    <text x="1180" y="690" font-family="system-ui, -apple-system, sans-serif" font-size="14" fill="#94A3B8" text-anchor="end">5 / 9</text>
  </g>
</svg>