<svg xmlns="http://www.w3.org/2000/svg" viewBox="0 0 1280 720" width="100%" height="100%">
  <rect width="1280" height="720" fill="#F8FAFC" />
  <rect x="0" y="0" width="1280" height="6" fill="#2563EB" />
  
  <g id="title-section">
    <text x="100" y="85" font-family="system-ui, -apple-system, 'Segoe UI', Roboto, Helvetica, Arial, sans-serif" font-size="38" font-weight="700" fill="#0F172A">典型应用案例解析</text>
    <line x1="100" y1="105" x2="1180" y2="105" stroke="#E2E8F0" stroke-width="2" />
  </g>

  <g id="card-1">
    <path fill="#FFFFFF" stroke="#E2E8F0" stroke-width="1" d="M112,130 H608 A12,12 0 0 1 620,142 V358 A12,12 0 0 1 608,370 H112 A12,12 0 0 1 100,358 V142 A12,12 0 0 1 112,130 Z" />
    <g transform="translate(140, 160)">
      <circle cx="20" cy="20" r="18" fill="none" stroke="#3B82F6" stroke-width="3" />
      <line x1="32" y1="32" x2="42" y2="42" stroke="#3B82F6" stroke-width="3" stroke-linecap="round" />
      <circle cx="15" cy="15" r="3" fill="#3B82F6" />
      <circle cx="35" cy="15" r="3" fill="#3B82F6" />
      <circle cx="25" cy="35" r="3" fill="#3B82F6" />
      <line x1="15" y1="15" x2="35" y2="15" stroke="#3B82F6" stroke-width="2" />
      <line x1="15" y1="15" x2="25" y2="35" stroke="#3B82F6" stroke-width="2" />
      <line x1="35" y1="15" x2="25" y2="35" stroke="#3B82F6" stroke-width="2" />
    </g>
    <text x="230" y="185" font-family="system-ui, -apple-system, 'Segoe UI', Roboto, Helvetica, Arial, sans-serif" font-size="22" font-weight="600" fill="#0F172A">Google 搜索</text>
    <text x="230" y="215" font-family="system-ui, -apple-system, 'Segoe UI', Roboto, Helvetica, Arial, sans-serif" font-size="16" fill="#475569">Knowledge Graph 赋能语义搜索</text>
    <circle cx="560" cy="160" r="20" fill="#DBEAFE" />
    <text x="560" y="166" font-family="system-ui, -apple-system, 'Segoe UI', Roboto, Helvetica, Arial, sans-serif" font-size="14" font-weight="700" fill="#2563EB" text-anchor="middle">01</text>
  </g>

  <g id="card-2">
    <path fill="#FFFFFF" stroke="#E2E8F0" stroke-width="1" d="M672,130 H1168 A12,12 0 0 1 1180,142 V358 A12,12 0 0 1 1168,370 H672 A12,12 0 0 1 660,358 V142 A12,12 0 0 1 672,130 Z" />
    <g transform="translate(700, 160)">
      <path d="M20 6 L20 34 M6 20 L34 20" stroke="#14B8A6" stroke-width="3" stroke-linecap="round" />
      <circle cx="12" cy="12" r="4" fill="#14B8A6" />
      <circle cx="36" cy="28" r="4" fill="#14B8A6" />
      <line x1="12" y1="12" x2="36" y2="28" stroke="#14B8A6" stroke-width="2" />
    </g>
    <text x="790" y="185" font-family="system-ui, -apple-system, 'Segoe UI', Roboto, Helvetica, Arial, sans-serif" font-size="22" font-weight="600" fill="#0F172A">医疗辅助诊断</text>
    <text x="790" y="215" font-family="system-ui, -apple-system, 'Segoe UI', Roboto, Helvetica, Arial, sans-serif" font-size="16" fill="#475569">症状-疾病-药物知识推理</text>
    <circle cx="1120" cy="160" r="20" fill="#CCFBF1" />
    <text x="1120" y="166" font-family="system-ui, -apple-system, 'Segoe UI', Roboto, Helvetica, Arial, sans-serif" font-size="14" font-weight="700" fill="#0D9488" text-anchor="middle">02</text>
  </g>

  <g id="card-3">
    <path fill="#FFFFFF" stroke="#E2E8F0" stroke-width="1" d="M112,390 H608 A12,12 0 0 1 620,402 V618 A12,12 0 0 1 608,630 H112 A12,12 0 0 1 100,618 V402 A12,12 0 0 1 112,390 Z" />
    <g transform="translate(140, 420)">
      <path d="M20 6 L34 12 V24 C34 32 20 38 20 38 C20 38 6 32 6 24 V12 Z" fill="none" stroke="#6366F1" stroke-width="3" stroke-linejoin="round" />
      <path d="M14 20 H26 M20 14 V26" stroke="#6366F1" stroke-width="2" stroke-linecap="round" />
      <circle cx="10" cy="10" r="3" fill="#6366F1" />
      <circle cx="30" cy="30" r="3" fill="#6366F1" />
      <line x1="10" y1="10" x2="30" y2="30" stroke="#6366F1" stroke-width="2" />
    </g>
    <text x="230" y="445" font-family="system-ui, -apple-system, 'Segoe UI', Roboto, Helvetica, Arial, sans-serif" font-size="22" font-weight="600" fill="#0F172A">金融风控</text>
    <text x="230" y="475" font-family="system-ui, -apple-system, 'Segoe UI', Roboto, Helvetica, Arial, sans-serif" font-size="16" fill="#475569">企业关联关系挖掘与反团伙欺诈</text>
    <circle cx="560" cy="420" r="20" fill="#E0E7FF" />
    <text x="560" y="426" font-family="system-ui, -apple-system, 'Segoe UI', Roboto, Helvetica, Arial, sans-serif" font-size="14" font-weight="700" fill="#4F46E5" text-anchor="middle">03</text>
  </g>

  <g id="card-4">
    <path fill="#FFFFFF" stroke="#E2E8F0" stroke-width="1" d="M672,390 H1168 A12,12 0 0 1 1180,402 V618 A12,12 0 0 1 1168,630 H672 A12,12 0 0 1 660,618 V402 A12,12 0 0 1 672,390 Z" />
    <g transform="translate(700, 420)">
      <polygon points="20,4 36,14 36,30 20,40 4,30 4,14" fill="none" stroke="#8B5CF6" stroke-width="3" stroke-linejoin="round" />
      <path fill="none" stroke="#8B5CF6" stroke-width="2" d="M16,16 H24 A2,2 0 0 1 26,18 V30 A2,2 0 0 1 24,32 H16 A2,2 0 0 1 14,30 V18 A2,2 0 0 1 16,16 Z" />
      <line x1="18" y1="20" x2="22" y2="20" stroke="#8B5CF6" stroke-width="2" stroke-linecap="round" />
      <line x1="18" y1="24" x2="22" y2="24" stroke="#8B5CF6" stroke-width="2" stroke-linecap="round" />
      <line x1="18" y1="28" x2="22" y2="28" stroke="#8B5CF6" stroke-width="2" stroke-linecap="round" />
    </g>
    <text x="790" y="445" font-family="system-ui, -apple-system, 'Segoe UI', Roboto, Helvetica, Arial, sans-serif" font-size="22" font-weight="600" fill="#0F172A">大模型+RAG</text>
    <text x="790" y="475" font-family="system-ui, -apple-system, 'Segoe UI', Roboto, Helvetica, Arial, sans-serif" font-size="16" fill="#475569">利用知识图谱减少 LLM 幻觉</text>
    <circle cx="1120" cy="420" r="20" fill="#EDE9FE" />
    <text x="1120" y="426" font-family="system-ui, -apple-system, 'Segoe UI', Roboto, Helvetica, Arial, sans-serif" font-size="14" font-weight="700" fill="#7C3AED" text-anchor="middle">04</text>
  </g>

  <text x="1180" y="690" font-family="system-ui, -apple-system, 'Segoe UI', Roboto, Helvetica, Arial, sans-serif" font-size="14" fill="#94A3B8" text-anchor="end">7 / 9</text>
</svg>