<svg xmlns="http://www.w3.org/2000/svg" viewBox="0 0 1280 720" width="100%" height="100%">
  <defs>
    <linearGradient id="bgGradient" x1="0%" y1="0%" x2="100%" y2="100%">
      <stop offset="0%" stop-color="#0f172a" />
      <stop offset="100%" stop-color="#1e293b" />
    </linearGradient>
    <linearGradient id="accentGradient" x1="0%" y1="0%" x2="100%" y2="0%">
      <stop offset="0%" stop-color="#3b82f6" />
      <stop offset="100%" stop-color="#06b6d4" />
    </linearGradient>
  </defs>

  
  <rect width="1280" height="720" fill="url(#bgGradient)" />

  
  <g id="decorations">
    <circle cx="1150" cy="50" r="350" fill="#ffffff" opacity="0.03" />
    <circle cx="100" cy="650" r="250" fill="#ffffff" opacity="0.02" />
    <path d="M0 620 L1280 620" stroke="#334155" stroke-width="2" opacity="0.6" />
  </g>

  
  <g id="content">
    
    <text x="640" y="280" font-family="'Microsoft YaHei', 'PingFang SC', sans-serif" font-size="120" fill="#ffffff" text-anchor="middle" font-weight="bold">谢谢！</text>
    
    
    <text x="640" y="350" font-family="Arial, sans-serif" font-size="30" fill="#94a3b8" text-anchor="middle" letter-spacing="8">THANK YOU</text>

    
    <path fill="url(#accentGradient)" d="M542,410 H738 A2,2 0 0 1 740,412 V412 A2,2 0 0 1 738,414 H542 A2,2 0 0 1 540,412 V412 A2,2 0 0 1 542,410 Z" />

    
    <text x="640" y="510" font-family="'Microsoft YaHei', 'PingFang SC', sans-serif" font-size="64" fill="#ffffff" text-anchor="middle" font-weight="bold">Q &amp; A</text>
    
    
    <text x="640" y="590" font-family="'Microsoft YaHei', 'PingFang SC', sans-serif" font-size="36" fill="#cbd5e1" text-anchor="middle">欢迎交流讨论</text>
  </g>
</svg>