<svg xmlns="http://www.w3.org/2000/svg" viewBox="0 0 1280 720" width="100%" height="100%">
  <rect width="1280" height="720" fill="#0B1120"/>
  <circle cx="1150" cy="120" r="380" fill="#1E293B" opacity="0.4"/>
  <circle cx="180" cy="620" r="320" fill="#1E293B" opacity="0.3"/>
  <g id="network-decoration" opacity="0.12">
    <circle cx="1020" cy="140" r="5" fill="#38BDF8"/>
    <circle cx="1100" cy="200" r="4" fill="#818CF8"/>
    <circle cx="960" cy="220" r="6" fill="#34D399"/>
    <circle cx="1080" cy="280" r="3" fill="#38BDF8"/>
    <path d="M1020 140 L1100 200 M1020 140 L960 220 M1100 200 L1080 280 M960 220 L1080 280" stroke="#94A3B8" stroke-width="2" fill="none"/>
  </g>
  <g id="title-section">
    <text x="100" y="135" font-family="system-ui, -apple-system, 'Segoe UI', Roboto, 'Helvetica Neue', Arial, 'Noto Sans SC', 'PingFang SC', 'Microsoft YaHei', sans-serif" font-size="54" font-weight="bold" fill="#F8FAFC">总结与展望</text>
    <path d="M100 165 H300" stroke="#38BDF8" stroke-width="5" stroke-linecap="round"/>
  </g>
  <g id="content-points">
    <g id="point-1">
      <rect x="100" y="230" width="1080" height="96" rx="14" fill="#1E293B" opacity="0.65"/>
      <rect x="100" y="230" width="6" height="96" rx="3" fill="#38BDF8"/>
      <text x="155" y="282" font-family="system-ui, -apple-system, 'Segoe UI', Roboto, 'Helvetica Neue', Arial, 'Noto Sans SC', 'PingFang SC', 'Microsoft YaHei', sans-serif" font-size="28" font-weight="500" fill="#E2E8F0">知识图谱是连接数据与智能的关键桥梁</text>
    </g>
    <g id="point-2">
      <rect x="100" y="346" width="1080" height="96" rx="14" fill="#1E293B" opacity="0.65"/>
      <rect x="100" y="346" width="6" height="96" rx="3" fill="#818CF8"/>
      <text x="155" y="398" font-family="system-ui, -apple-system, 'Segoe UI', Roboto, 'Helvetica Neue', Arial, 'Noto Sans SC', 'PingFang SC', 'Microsoft YaHei', sans-serif" font-size="28" font-weight="500" fill="#E2E8F0">核心技术日趋成熟 → 产业落地加速</text>
    </g>
    <g id="point-3">
      <rect x="100" y="462" width="1080" height="96" rx="14" fill="#1E293B" opacity="0.65"/>
      <rect x="100" y="462" width="6" height="96" rx="3" fill="#34D399"/>
      <text x="155" y="514" font-family="system-ui, -apple-system, 'Segoe UI', Roboto, 'Helvetica Neue', Arial, 'Noto Sans SC', 'PingFang SC', 'Microsoft YaHei', sans-serif" font-size="28" font-weight="500" fill="#E2E8F0">未来：LLM + KG 深度融合，迈向可信 AI</text>
    </g>
  </g>
  <g id="footer-section">
    <path d="M1060 675 H1160" stroke="#334155" stroke-width="2" stroke-linecap="round"/>
    <text x="1180" y="685" font-family="system-ui, -apple-system, 'Segoe UI', Roboto, 'Helvetica Neue', Arial, 'Noto Sans SC', 'PingFang SC', 'Microsoft YaHei', sans-serif" font-size="22" font-weight="600" fill="#64748B" text-anchor="end">THANK YOU</text>
  </g>
</svg>