<svg xmlns="http://www.w3.org/2000/svg" viewBox="0 0 1280 720">
  <rect width="1280" height="720" fill="#f5f8fe" />
  
  <g id="tech-accents">
    <path fill="#1a73e8" d="M74,140 H74 A4,4 0 0 1 78,144 V576 A4,4 0 0 1 74,580 H74 A4,4 0 0 1 70,576 V144 A4,4 0 0 1 74,140 Z" />
    <polygon points="1060,120 1210,120 1210,270" fill="#4fc3f7" opacity="0.12" />
    <circle cx="1135" cy="195" r="35" fill="none" stroke="#1a73e8" stroke-width="2" opacity="0.35" />
    <circle cx="1135" cy="195" r="15" fill="#4fc3f7" opacity="0.2" />
    <rect x="1040" y="540" width="190" height="130" fill="none" stroke="#4fc3f7" stroke-width="1" opacity="0.25" />
    <line x1="1040" y1="580" x2="1230" y2="580" stroke="#4fc3f7" stroke-width="1" opacity="0.25" />
    <line x1="1040" y1="620" x2="1230" y2="620" stroke="#4fc3f7" stroke-width="1" opacity="0.25" />
    <line x1="1100" y1="540" x2="1100" y2="670" stroke="#4fc3f7" stroke-width="1" opacity="0.25" />
    <line x1="1160" y1="540" x2="1160" y2="670" stroke="#4fc3f7" stroke-width="1" opacity="0.25" />
  </g>
  
  <g id="chapter-content">
    <text x="130" y="270" font-family="system-ui, Arial, Helvetica, sans-serif" font-size="150" font-weight="800" fill="#1a73e8" letter-spacing="-3">01</text>
    <text x="130" y="370" font-family="system-ui, Arial, Helvetica, sans-serif" font-size="54" font-weight="700" fill="#1a1a1a">背景与问题</text>
    <line x1="130" y1="410" x2="270" y2="410" stroke="#4fc3f7" stroke-width="5" stroke-linecap="round" />
    <text x="130" y="490" font-family="system-ui, Arial, Helvetica, sans-serif" font-size="30" font-weight="500" fill="#5f6368">1. 大模型的核心困境</text>
    <text x="130" y="540" font-family="system-ui, Arial, Helvetica, sans-serif" font-size="16" font-weight="400" fill="#9aa0a6">探索技术演进路径中的关键瓶颈与结构性挑战</text>
  </g>
  
  <g id="page-footer">
    <line x1="80" y1="680" x2="1100" y2="680" stroke="#e0e5ec" stroke-width="1" />
    <text x="1160" y="670" font-family="system-ui, Arial, Helvetica, sans-serif" font-size="14" font-weight="400" fill="#9aa0a6" text-anchor="end">3 / 21</text>
  </g>
</svg>