<svg xmlns="http://www.w3.org/2000/svg" viewBox="0 0 1280 720" width="100%" height="100%">
  <rect width="1280" height="720" fill="#f5f8fe" />
  
  <g id="header">
    <text x="640" y="65" font-family="Arial, Helvetica, sans-serif" font-size="36" font-weight="700" fill="#1a73e8" text-anchor="middle">知识图谱技术栈</text>
    <line x1="520" y1="85" x2="760" y2="85" stroke="#4fc3f7" stroke-width="4" stroke-linecap="round" />
  </g>

  <g id="layer-storage">
    <path fill="#ffffff" stroke="#e2e8f0" stroke-width="1" d="M150,120 H1130 A10,10 0 0 1 1140,130 V190 A10,10 0 0 1 1130,200 H150 A10,10 0 0 1 140,190 V130 A10,10 0 0 1 150,120 Z" />
    <path fill="#1a73e8" d="M143,120 H143 A3,3 0 0 1 146,123 V197 A3,3 0 0 1 143,200 H143 A3,3 0 0 1 140,197 V123 A3,3 0 0 1 143,120 Z" />
    <circle cx="200" cy="160" r="18" fill="#4fc3f7" />
    <text x="200" y="166" font-family="Arial, Helvetica, sans-serif" font-size="16" font-weight="600" fill="#ffffff" text-anchor="middle">1</text>
    <text x="240" y="154" font-family="Arial, Helvetica, sans-serif" font-size="20" font-weight="600" fill="#111827">存储层 Storage Layer</text>
    <text x="240" y="178" font-family="Arial, Helvetica, sans-serif" font-size="16" fill="#4b5563">Neo4j / NebulaGraph / JanusGraph（图数据库）</text>
  </g>

  <g id="layer-construction">
    <path fill="#ffffff" stroke="#e2e8f0" stroke-width="1" d="M150,220 H1130 A10,10 0 0 1 1140,230 V290 A10,10 0 0 1 1130,300 H150 A10,10 0 0 1 140,290 V230 A10,10 0 0 1 150,220 Z" />
    <path fill="#1a73e8" d="M143,220 H143 A3,3 0 0 1 146,223 V297 A3,3 0 0 1 143,300 H143 A3,3 0 0 1 140,297 V223 A3,3 0 0 1 143,220 Z" />
    <circle cx="200" cy="260" r="18" fill="#4fc3f7" />
    <text x="200" y="266" font-family="Arial, Helvetica, sans-serif" font-size="16" font-weight="600" fill="#ffffff" text-anchor="middle">2</text>
    <text x="240" y="254" font-family="Arial, Helvetica, sans-serif" font-size="20" font-weight="600" fill="#111827">构建层 Construction Layer</text>
    <text x="240" y="278" font-family="Arial, Helvetica, sans-serif" font-size="16" fill="#4b5563">NLP 实体抽取 + 关系抽取 + 知识融合</text>
  </g>

  <g id="layer-query">
    <path fill="#ffffff" stroke="#e2e8f0" stroke-width="1" d="M150,320 H1130 A10,10 0 0 1 1140,330 V390 A10,10 0 0 1 1130,400 H150 A10,10 0 0 1 140,390 V330 A10,10 0 0 1 150,320 Z" />
    <path fill="#1a73e8" d="M143,320 H143 A3,3 0 0 1 146,323 V397 A3,3 0 0 1 143,400 H143 A3,3 0 0 1 140,397 V323 A3,3 0 0 1 143,320 Z" />
    <circle cx="200" cy="360" r="18" fill="#4fc3f7" />
    <text x="200" y="366" font-family="Arial, Helvetica, sans-serif" font-size="16" font-weight="600" fill="#ffffff" text-anchor="middle">3</text>
    <text x="240" y="354" font-family="Arial, Helvetica, sans-serif" font-size="20" font-weight="600" fill="#111827">查询层 Query Layer</text>
    <text x="240" y="378" font-family="Arial, Helvetica, sans-serif" font-size="16" fill="#4b5563">SPARQL / Cypher / Gremlin</text>
  </g>

  <g id="layer-reasoning">
    <path fill="#ffffff" stroke="#e2e8f0" stroke-width="1" d="M150,420 H1130 A10,10 0 0 1 1140,430 V490 A10,10 0 0 1 1130,500 H150 A10,10 0 0 1 140,490 V430 A10,10 0 0 1 150,420 Z" />
    <path fill="#1a73e8" d="M143,420 H143 A3,3 0 0 1 146,423 V497 A3,3 0 0 1 143,500 H143 A3,3 0 0 1 140,497 V423 A3,3 0 0 1 143,420 Z" />
    <circle cx="200" cy="460" r="18" fill="#4fc3f7" />
    <text x="200" y="466" font-family="Arial, Helvetica, sans-serif" font-size="16" font-weight="600" fill="#ffffff" text-anchor="middle">4</text>
    <text x="240" y="454" font-family="Arial, Helvetica, sans-serif" font-size="20" font-weight="600" fill="#111827">推理层 Reasoning Layer</text>
    <text x="240" y="478" font-family="Arial, Helvetica, sans-serif" font-size="16" fill="#4b5563">规则引擎 / GNN / 符号推理</text>
  </g>

  <g id="layer-llm">
    <path fill="#ffffff" stroke="#e2e8f0" stroke-width="1" d="M150,520 H1130 A10,10 0 0 1 1140,530 V590 A10,10 0 0 1 1130,600 H150 A10,10 0 0 1 140,590 V530 A10,10 0 0 1 150,520 Z" />
    <path fill="#1a73e8" d="M143,520 H143 A3,3 0 0 1 146,523 V597 A3,3 0 0 1 143,600 H143 A3,3 0 0 1 140,597 V523 A3,3 0 0 1 143,520 Z" />
    <circle cx="200" cy="560" r="18" fill="#4fc3f7" />
    <text x="200" y="566" font-family="Arial, Helvetica, sans-serif" font-size="16" font-weight="600" fill="#ffffff" text-anchor="middle">5</text>
    <text x="240" y="554" font-family="Arial, Helvetica, sans-serif" font-size="20" font-weight="600" fill="#111827">与 LLM 结合 KG-LLM Integration</text>
    <text x="240" y="578" font-family="Arial, Helvetica, sans-serif" font-size="16" fill="#4b5563">KG-LLM 双向增强</text>
  </g>

  <g id="connectors">
    <line x1="143" y1="200" x2="143" y2="600" stroke="#cbd5e1" stroke-width="2" stroke-dasharray="6 6" />
    <circle cx="143" cy="200" r="3" fill="#4fc3f7" />
    <circle cx="143" cy="300" r="3" fill="#4fc3f7" />
    <circle cx="143" cy="400" r="3" fill="#4fc3f7" />
    <circle cx="143" cy="500" r="3" fill="#4fc3f7" />
  </g>

  <g id="decorations">
    <path d="M 1160 120 L 1200 120 L 1200 160" fill="none" stroke="#4fc3f7" stroke-width="2" opacity="0.4" />
    <circle cx="1200" cy="160" r="4" fill="#1a73e8" opacity="0.5" />
    <path d="M 120 600 L 160 600 L 160 560" fill="none" stroke="#4fc3f7" stroke-width="2" opacity="0.4" />
    <circle cx="160" cy="560" r="4" fill="#1a73e8" opacity="0.5" />
    <polygon points="1180,620 1190,640 1170,640" fill="#4fc3f7" opacity="0.3" />
    <polygon points="100,100 110,120 90,120" fill="#1a73e8" opacity="0.2" />
  </g>
</svg>