<svg xmlns="http://www.w3.org/2000/svg" viewBox="0 0 1280 720">
  <defs>
    <linearGradient id="headerGrad" x1="0%" y1="0%" x2="100%" y2="0%">
      <stop offset="0%" style="stop-color:#1a73e8;stop-opacity:1" />
      <stop offset="100%" style="stop-color:#4fc3f7;stop-opacity:1" />
    </linearGradient>
    <linearGradient id="cardGrad1" x1="0%" y1="0%" x2="0%" y2="100%">
      <stop offset="0%" style="stop-color:#ffffff;stop-opacity:1" />
      <stop offset="100%" style="stop-color:#f0f6ff;stop-opacity:1" />
    </linearGradient>
    <linearGradient id="arrowGrad" x1="0%" y1="0%" x2="100%" y2="0%">
      <stop offset="0%" style="stop-color:#1a73e8;stop-opacity:1" />
      <stop offset="100%" style="stop-color:#4fc3f7;stop-opacity:1" />
    </linearGradient>
    <filter id="shadow" x="-5%" y="-5%" width="115%" height="115%">
      <feDropShadow dx="2" dy="3" stdDeviation="4" flood-color="#1a73e8" flood-opacity="0.12" />
    </filter>
    <filter id="shadowLight" x="-5%" y="-5%" width="115%" height="115%">
      <feDropShadow dx="1" dy="2" stdDeviation="3" flood-color="#1a73e8" flood-opacity="0.08" />
    </filter>
  </defs>

  
  <rect x="0" y="0" width="1280" height="720" fill="#f5f8fe" rx="0" />

  
  <rect x="0" y="0" width="1280" height="5" fill="url(#headerGrad)" />

  
  <g id="header">
    <rect x="0" y="5" width="1280" height="85" fill="url(#headerGrad)" />
    <text x="640" y="42" text-anchor="middle" font-family="'Segoe UI', 'Helvetica Neue', Arial, sans-serif" font-size="36" font-weight="700" fill="#ffffff" letter-spacing="4">RAG 核心原理</text>
    <text x="640" y="72" text-anchor="middle" font-family="'Segoe UI', 'Helvetica Neue', Arial, sans-serif" font-size="15" fill="#b3d9ff" letter-spacing="2">Retrieval-Augmented Generation — 检索增强生成架构</text>
  </g>

  
  <g id="section-architecture" transform="translate(60, 110)">
    <path fill="url(#cardGrad1)" filter="url(#shadow)" d="M12,0 H1148 A12,12 0 0 1 1160,12 V118 A12,12 0 0 1 1148,130 H12 A12,12 0 0 1 0,118 V12 A12,12 0 0 1 12,0 Z" />
    <path fill="#1a73e8" d="M3,0 H3 A3,3 0 0 1 6,3 V127 A3,3 0 0 1 3,130 H3 A3,3 0 0 1 0,127 V3 A3,3 0 0 1 3,0 Z" />
    
    
    <text x="30" y="32" font-family="'Segoe UI', 'Helvetica Neue', Arial, sans-serif" font-size="13" font-weight="600" fill="#1a73e8" letter-spacing="2">01 / 三段式架构</text>
    
    
    <g transform="translate(30, 48)">
      <path fill="#1a73e8" filter="url(#shadowLight)" d="M10,0 H270 A10,10 0 0 1 280,10 V58 A10,10 0 0 1 270,68 H10 A10,10 0 0 1 0,58 V10 A10,10 0 0 1 10,0 Z" />
      <text x="140" y="28" text-anchor="middle" font-family="'Segoe UI', 'Helvetica Neue', Arial, sans-serif" font-size="18" font-weight="700" fill="#ffffff">Index 索引</text>
      <text x="140" y="50" text-anchor="middle" font-family="'Segoe UI', 'Helvetica Neue', Arial, sans-serif" font-size="12" fill="#b3d9ff">文档入库与向量化存储</text>
    </g>
    
    
    <g transform="translate(320, 72)">
      <line x1="0" y1="0" x2="40" y2="0" stroke="url(#arrowGrad)" stroke-width="3" stroke-linecap="round" />
      <polygon points="40,-6 52,0 40,6" fill="#4fc3f7" />
    </g>
    
    
    <g transform="translate(380, 48)">
      <path fill="#4fc3f7" filter="url(#shadowLight)" d="M10,0 H270 A10,10 0 0 1 280,10 V58 A10,10 0 0 1 270,68 H10 A10,10 0 0 1 0,58 V10 A10,10 0 0 1 10,0 Z" />
      <text x="140" y="28" text-anchor="middle" font-family="'Segoe UI', 'Helvetica Neue', Arial, sans-serif" font-size="18" font-weight="700" fill="#ffffff">Retrieve 检索</text>
      <text x="140" y="50" text-anchor="middle" font-family="'Segoe UI', 'Helvetica Neue', Arial, sans-serif" font-size="12" fill="#ffffff">语义相似度匹配召回</text>
    </g>
    
    
    <g transform="translate(670, 72)">
      <line x1="0" y1="0" x2="40" y2="0" stroke="url(#arrowGrad)" stroke-width="3" stroke-linecap="round" />
      <polygon points="40,-6 52,0 40,6" fill="#4fc3f7" />
    </g>
    
    
    <g transform="translate(730, 48)">
      <path fill="#1a73e8" filter="url(#shadowLight)" d="M10,0 H270 A10,10 0 0 1 280,10 V58 A10,10 0 0 1 270,68 H10 A10,10 0 0 1 0,58 V10 A10,10 0 0 1 10,0 Z" />
      <text x="140" y="28" text-anchor="middle" font-family="'Segoe UI', 'Helvetica Neue', Arial, sans-serif" font-size="18" font-weight="700" fill="#ffffff">Generate 生成</text>
      <text x="140" y="50" text-anchor="middle" font-family="'Segoe UI', 'Helvetica Neue', Arial, sans-serif" font-size="12" fill="#b3d9ff">LLM 基于上下文生成回答</text>
    </g>
  </g>

  
  <g id="section-vectorization" transform="translate(60, 260)">
    <path fill="url(#cardGrad1)" filter="url(#shadow)" d="M12,0 H548 A12,12 0 0 1 560,12 V188 A12,12 0 0 1 548,200 H12 A12,12 0 0 1 0,188 V12 A12,12 0 0 1 12,0 Z" />
    <path fill="#1a73e8" d="M3,0 H3 A3,3 0 0 1 6,3 V197 A3,3 0 0 1 3,200 H3 A3,3 0 0 1 0,197 V3 A3,3 0 0 1 3,0 Z" />
    
    <text x="30" y="32" font-family="'Segoe UI', 'Helvetica Neue', Arial, sans-serif" font-size="13" font-weight="600" fill="#1a73e8" letter-spacing="2">02 / 向量化处理</text>
    
    
    <g transform="translate(30, 52)">
      
      <g transform="translate(0, 0)">
        <path fill="#e8f0fe" stroke="#1a73e8" stroke-width="1.5" d="M12,0 H108 A12,12 0 0 1 120,12 V108 A12,12 0 0 1 108,120 H12 A12,12 0 0 1 0,108 V12 A12,12 0 0 1 12,0 Z" />
        <text x="60" y="35" text-anchor="middle" font-family="'Segoe UI', 'Helvetica Neue', Arial, sans-serif" font-size="28" fill="#1a73e8">📄</text>
        <text x="60" y="62" text-anchor="middle" font-family="'Segoe UI', 'Helvetica Neue', Arial, sans-serif" font-size="13" font-weight="600" fill="#1a73e8">文档切片</text>
        <text x="60" y="80" text-anchor="middle" font-family="'Segoe UI', 'Helvetica Neue', Arial, sans-serif" font-size="10" fill="#666">Chunking</text>
        <text x="60" y="100" text-anchor="middle" font-family="'Segoe UI', 'Helvetica Neue', Arial, sans-serif" font-size="10" fill="#888">分段处理</text>
      </g>
      
      
      <g transform="translate(130, 55)">
        <line x1="0" y1="0" x2="30" y2="0" stroke="#1a73e8" stroke-width="2" stroke-linecap="round" />
        <polygon points="30,-5 40,0 30,5" fill="#1a73e8" />
      </g>
      
      
      <g transform="translate(175, 0)">
        <path fill="#e8f0fe" stroke="#1a73e8" stroke-width="1.5" d="M12,0 H108 A12,12 0 0 1 120,12 V108 A12,12 0 0 1 108,120 H12 A12,12 0 0 1 0,108 V12 A12,12 0 0 1 12,0 Z" />
        <text x="60" y="35" text-anchor="middle" font-family="'Segoe UI', 'Helvetica Neue', Arial, sans-serif" font-size="28" fill="#1a73e8">🧠</text>
        <text x="60" y="62" text-anchor="middle" font-family="'Segoe UI', 'Helvetica Neue', Arial, sans-serif" font-size="13" font-weight="600" fill="#1a73e8">Embedding</text>
        <text x="60" y="80" text-anchor="middle" font-family="'Segoe UI', 'Helvetica Neue', Arial, sans-serif" font-size="10" fill="#666">嵌入模型</text>
        <text x="60" y="100" text-anchor="middle" font-family="'Segoe UI', 'Helvetica Neue', Arial, sans-serif" font-size="10" fill="#888">文本→向量</text>
      </g>
      
      
      <g transform="translate(310, 55)">
        <line x1="0" y1="0" x2="30" y2="0" stroke="#1a73e8" stroke-width="2" stroke-linecap="round" />
        <polygon points="30,-5 40,0 30,5" fill="#1a73e8" />
      </g>
      
      
      <g transform="translate(355, 0)">
        <path fill="#e8f0fe" stroke="#1a73e8" stroke-width="1.5" d="M12,0 H108 A12,12 0 0 1 120,12 V108 A12,12 0 0 1 108,120 H12 A12,12 0 0 1 0,108 V12 A12,12 0 0 1 12,0 Z" />
        <text x="60" y="35" text-anchor="middle" font-family="'Segoe UI', 'Helvetica Neue', Arial, sans-serif" font-size="28" fill="#1a73e8">💾</text>
        <text x="60" y="62" text-anchor="middle" font-family="'Segoe UI', 'Helvetica Neue', Arial, sans-serif" font-size="13" font-weight="600" fill="#1a73e8">向量数据库</text>
        <text x="60" y="80" text-anchor="middle" font-family="'Segoe UI', 'Helvetica Neue', Arial, sans-serif" font-size="10" fill="#666">Vector DB</text>
        <text x="60" y="100" text-anchor="middle" font-family="'Segoe UI', 'Helvetica Neue', Arial, sans-serif" font-size="10" fill="#888">高效存储检索</text>
      </g>
    </g>
  </g>

  
  <g id="section-retrieval" transform="translate(650, 260)">
    <path fill="url(#cardGrad1)" filter="url(#shadow)" d="M12,0 H558 A12,12 0 0 1 570,12 V188 A12,12 0 0 1 558,200 H12 A12,12 0 0 1 0,188 V12 A12,12 0 0 1 12,0 Z" />
    <path fill="#4fc3f7" d="M3,0 H3 A3,3 0 0 1 6,3 V197 A3,3 0 0 1 3,200 H3 A3,3 0 0 1 0,197 V3 A3,3 0 0 1 3,0 Z" />
    
    <text x="30" y="32" font-family="'Segoe UI', 'Helvetica Neue', Arial, sans-serif" font-size="13" font-weight="600" fill="#1a73e8" letter-spacing="2">03 / 语义检索机制</text>
    
    
    <g transform="translate(30, 52)">
      <path fill="#e8f0fe" d="M10,0 H230 A10,10 0 0 1 240,10 V130 A10,10 0 0 1 230,140 H10 A10,10 0 0 1 0,130 V10 A10,10 0 0 1 10,0 Z" />
      <text x="120" y="25" text-anchor="middle" font-family="'Segoe UI', 'Helvetica Neue', Arial, sans-serif" font-size="12" font-weight="600" fill="#1a73e8">余弦相似度计算</text>
      
      
      <g transform="translate(20, 40)">
        <text x="0" y="12" font-family="'Segoe UI', 'Helvetica Neue', Arial, sans-serif" font-size="10" fill="#555">Query:</text>
        <path fill="#1a73e8" opacity="0.7" d="M44,2 H216 A4,4 0 0 1 220,6 V14 A4,4 0 0 1 216,18 H44 A4,4 0 0 1 40,14 V6 A4,4 0 0 1 44,2 Z" />
        <text x="130" y="14" text-anchor="middle" font-family="'Segoe UI', 'Helvetica Neue', Arial, sans-serif" font-size="9" fill="#fff">[0.23, -0.45, 0.78, ...]</text>
        
        <text x="0" y="42" font-family="'Segoe UI', 'Helvetica Neue', Arial, sans-serif" font-size="10" fill="#555">Doc1:</text>
        <path fill="#4fc3f7" opacity="0.6" d="M44,32 H216 A4,4 0 0 1 220,36 V44 A4,4 0 0 1 216,48 H44 A4,4 0 0 1 40,44 V36 A4,4 0 0 1 44,32 Z" />
        <text x="130" y="44" text-anchor="middle" font-family="'Segoe UI', 'Helvetica Neue', Arial, sans-serif" font-size="9" fill="#fff">[0.21, -0.42, 0.81, ...] → 0.96</text>
        
        <text x="0" y="72" font-family="'Segoe UI', 'Helvetica Neue', Arial, sans-serif" font-size="10" fill="#555">Doc2:</text>
        <path fill="#4fc3f7" opacity="0.4" d="M44,62 H216 A4,4 0 0 1 220,66 V74 A4,4 0 0 1 216,78 H44 A4,4 0 0 1 40,74 V66 A4,4 0 0 1 44,62 Z" />
        <text x="130" y="74" text-anchor="middle" font-family="'Segoe UI', 'Helvetica Neue', Arial, sans-serif" font-size="9" fill="#fff">[0.55, 0.12, -0.33, ...] → 0.42</text>
        
        <text x="0" y="102" font-family="'Segoe UI', 'Helvetica Neue', Arial, sans-serif" font-size="10" fill="#555">Doc3:</text>
        <path fill="#4fc3f7" opacity="0.5" d="M44,92 H216 A4,4 0 0 1 220,96 V104 A4,4 0 0 1 216,108 H44 A4,4 0 0 1 40,104 V96 A4,4 0 0 1 44,92 Z" />
        <text x="130" y="104" text-anchor="middle" font-family="'Segoe UI', 'Helvetica Neue', Arial, sans-serif" font-size="9" fill="#fff">[0.19, -0.48, 0.75, ...] → 0.93</text>
      </g>
    </g>
    
    
    <g transform="translate(290, 52)">
      <path fill="#e8f0fe" d="M10,0 H240 A10,10 0 0 1 250,10 V130 A10,10 0 0 1 240,140 H10 A10,10 0 0 1 0,130 V10 A10,10 0 0 1 10,0 Z" />
      <text x="125" y="25" text-anchor="middle" font-family="'Segoe UI', 'Helvetica Neue', Arial, sans-serif" font-size="12" font-weight="600" fill="#1a73e8">Top-K 召回策略</text>
      
      <g transform="translate(20, 42)">
        <path fill="#1a73e8" d="M6,0 H204 A6,6 0 0 1 210,6 V22 A6,6 0 0 1 204,28 H6 A6,6 0 0 1 0,22 V6 A6,6 0 0 1 6,0 Z" />
        <text x="105" y="19" text-anchor="middle" font-family="'Segoe UI', 'Helvetica Neue', Arial, sans-serif" font-size="12" font-weight="600" fill="#ffffff">⭐ Doc1 (sim=0.96)</text>
        
        <path fill="#4fc3f7" opacity="0.7" d="M6,34 H204 A6,6 0 0 1 210,40 V56 A6,6 0 0 1 204,62 H6 A6,6 0 0 1 0,56 V40 A6,6 0 0 1 6,34 Z" />
        <text x="105" y="53" text-anchor="middle" font-family="'Segoe UI', 'Helvetica Neue', Arial, sans-serif" font-size="12" font-weight="600" fill="#ffffff">⭐ Doc3 (sim=0.93)</text>
        
        <path fill="#4fc3f7" opacity="0.4" d="M6,68 H204 A6,6 0 0 1 210,74 V90 A6,6 0 0 1 204,96 H6 A6,6 0 0 1 0,90 V74 A6,6 0 0 1 6,68 Z" />
        <text x="105" y="87" text-anchor="middle" font-family="'Segoe UI', 'Helvetica Neue', Arial, sans-serif" font-size="12" font-weight="600" fill="#ffffff">⭐ Doc5 (sim=0.89)</text>
      </g>
    </g>
  </g>

  
  <g id="section-injection" transform="translate(60, 480)">
    <path fill="url(#cardGrad1)" filter="url(#shadow)" d="M12,0 H1148 A12,12 0 0 1 1160,12 V98 A12,12 0 0 1 1148,110 H12 A12,12 0 0 1 0,98 V12 A12,12 0 0 1 12,0 Z" />
    <path fill="#1a73e8" d="M3,0 H3 A3,3 0 0 1 6,3 V107 A3,3 0 0 1 3,110 H3 A3,3 0 0 1 0,107 V3 A3,3 0 0 1 3,0 Z" />
    
    <text x="30" y="32" font-family="'Segoe UI', 'Helvetica Neue', Arial, sans-serif" font-size="13" font-weight="600" fill="#1a73e8" letter-spacing="2">04 / 上下文注入与推理</text>
    
    
    <g transform="translate(30, 48)">
      <path fill="#1a73e8" opacity="0.08" stroke="#1a73e8" stroke-width="1" stroke-dasharray="4,3" d="M8,0 H292 A8,8 0 0 1 300,8 V47 A8,8 0 0 1 292,55 H8 A8,8 0 0 1 0,47 V8 A8,8 0 0 1 8,0 Z" />
      <text x="15" y="22" font-family="'Segoe UI', 'Helvetica Neue', Arial, sans-serif" font-size="11" font-weight="600" fill="#1a73e8">[System Prompt]</text>
      <text x="15" y="42" font-family="'Segoe UI', 'Helvetica Neue', Arial, sans-serif" font-size="10" fill="#555">你是一个有帮助的AI助手...</text>
    </g>
    
    
    <text x="345" y="78" text-anchor="middle" font-family="'Segoe UI', 'Helvetica Neue', Arial, sans-serif" font-size="24" font-weight="700" fill="#4fc3f7">+</text>
    
    
    <g transform="translate(365, 48)">
      <path fill="#4fc3f7" opacity="0.12" stroke="#4fc3f7" stroke-width="1" stroke-dasharray="4,3" d="M8,0 H292 A8,8 0 0 1 300,8 V47 A8,8 0 0 1 292,55 H8 A8,8 0 0 1 0,47 V8 A8,8 0 0 1 8,0 Z" />
      <text x="15" y="22" font-family="'Segoe UI', 'Helvetica Neue', Arial, sans-serif" font-size="11" font-weight="600" fill="#1a73e8">[Context from Retrieval]</text>
      <text x="15" y="42" font-family="'Segoe UI', 'Helvetica Neue', Arial, sans-serif" font-size="10" fill="#555">根据检索到的文档片段...</text>
    </g>
    
    
    <text x="685" y="78" text-anchor="middle" font-family="'Segoe UI', 'Helvetica Neue', Arial, sans-serif" font-size="24" font-weight="700" fill="#4fc3f7">+</text>
    
    
    <g transform="translate(705, 48)">
      <path fill="#1a73e8" opacity="0.08" stroke="#1a73e8" stroke-width="1" stroke-dasharray="4,3" d="M8,0 H192 A8,8 0 0 1 200,8 V47 A8,8 0 0 1 192,55 H8 A8,8 0 0 1 0,47 V8 A8,8 0 0 1 8,0 Z" />
      <text x="15" y="22" font-family="'Segoe UI', 'Helvetica Neue', Arial, sans-serif" font-size="11" font-weight="600" fill="#1a73e8">[User Query]</text>
      <text x="15" y="42" font-family="'Segoe UI', 'Helvetica Neue', Arial, sans-serif" font-size="10" fill="#555">用户提出的问题...</text>
    </g>
    
    
    <text x="925" y="78" text-anchor="middle" font-family="'Segoe UI', 'Helvetica Neue', Arial, sans-serif" font-size="24" font-weight="700" fill="#1a73e8">=</text>
    
    
    <g transform="translate(945, 48)">
      <path fill="#1a73e8" d="M8,0 H187 A8,8 0 0 1 195,8 V47 A8,8 0 0 1 187,55 H8 A8,8 0 0 1 0,47 V8 A8,8 0 0 1 8,0 Z" />
      <text x="97" y="22" text-anchor="middle" font-family="'Segoe UI', 'Helvetica Neue', Arial, sans-serif" font-size="11" font-weight="700" fill="#ffffff">LLM 生成回答</text>
      <text x="97" y="42" text-anchor="middle" font-family="'Segoe UI', 'Helvetica Neue', Arial, sans-serif" font-size="10" fill="#b3d9ff">基于完整上下文的输出</text>
    </g>
  </g>

  
  <g id="section-features" transform="translate(60, 610)">
    <path fill="url(#cardGrad1)" filter="url(#shadow)" d="M12,0 H1148 A12,12 0 0 1 1160,12 V73 A12,12 0 0 1 1148,85 H12 A12,12 0 0 1 0,73 V12 A12,12 0 0 1 12,0 Z" />
    <path fill="#4fc3f7" d="M3,0 H3 A3,3 0 0 1 6,3 V82 A3,3 0 0 1 3,85 H3 A3,3 0 0 1 0,82 V3 A3,3 0 0 1 3,0 Z" />
    
    <text x="30" y="30" font-family="'Segoe UI', 'Helvetica Neue', Arial, sans-serif" font-size="13" font-weight="600" fill="#1a73e8" letter-spacing="2">05 / 核心特点</text>
    
    
    <g transform="translate(30, 42)">
      <path fill="#1a73e8" d="M16,0 H124 A16,16 0 0 1 140,16 V16 A16,16 0 0 1 124,32 H16 A16,16 0 0 1 0,16 V16 A16,16 0 0 1 16,0 Z" />
      <text x="70" y="21" text-anchor="middle" font-family="'Segoe UI', 'Helvetica Neue', Arial, sans-serif" font-size="12" font-weight="600" fill="#ffffff">✓ 灵活可扩展</text>
    </g>
    
    <g transform="translate(180, 42)">
      <path fill="#1a73e8" d="M16,0 H124 A16,16 0 0 1 140,16 V16 A16,16 0 0 1 124,32 H16 A16,16 0 0 1 0,16 V16 A16,16 0 0 1 16,0 Z" />
      <text x="70" y="21" text-anchor="middle" font-family="'Segoe UI', 'Helvetica Neue', Arial, sans-serif" font-size="12" font-weight="600" fill="#ffffff">✓ 低成本部署</text>
    </g>
    
    <g transform="translate(330, 42)">
      <path fill="#1a73e8" d="M16,0 H124 A16,16 0 0 1 140,16 V16 A16,16 0 0 1 124,32 H16 A16,16 0 0 1 0,16 V16 A16,16 0 0 1 16,0 Z" />
      <text x="70" y="21" text-anchor="middle" font-family="'Segoe UI', 'Helvetica Neue', Arial, sans-serif" font-size="12" font-weight="600" fill="#ffffff">✓ 实时更新知识</text>
    </g>
    
    
    <g transform="translate(500, 42)">
      <path fill="#fff3e0" stroke="#ff9800" stroke-width="1.5" d="M16,0 H324 A16,16 0 0 1 340,16 V16 A16,16 0 0 1 324,32 H16 A16,16 0 0 1 0,16 V16 A16,16 0 0 1 16,0 Z" />
      <text x="170" y="21" text-anchor="middle" font-family="'Segoe UI', 'Helvetica Neue', Arial, sans-serif" font-size="12" font-weight="600" fill="#e65100">⚠ 精度受限于检索质量 (Retrieval Quality)</text>
    </g>
    
    
    <text x="870" y="62" font-family="'Segoe UI', 'Helvetica Neue', Arial, sans-serif" font-size="11" fill="#888">检索召回率直接影响最终生成效果</text>
  </g>

  
  <text x="1240" y="700" text-anchor="end" font-family="'Segoe UI', 'Helvetica Neue', Arial, sans-serif" font-size="12" fill="#aaa">9 / 21</text>
  
  
  <g transform="translate(1200, 660)" opacity="0.15">
    <circle cx="0" cy="0" r="3" fill="#1a73e8" />
    <circle cx="20" cy="0" r="3" fill="#1a73e8" />
    <circle cx="40" cy="0" r="3" fill="#1a73e8" />
    <circle cx="0" cy="20" r="3" fill="#1a73e8" />
    <circle cx="20" cy="20" r="3" fill="#1a73e8" />
    <circle cx="40" cy="20" r="3" fill="#1a73e8" />
    <circle cx="0" cy="40" r="3" fill="#1a73e8" />
    <circle cx="20" cy="40" r="3" fill="#1a73e8" />
    <circle cx="40" cy="40" r="3" fill="#1a73e8" />
  </g>
</svg>