<svg xmlns="http://www.w3.org/2000/svg" viewBox="0 0 1280 720">
  
  <rect width="1280" height="720" fill="#f5f8fe" />
  
  
  <circle cx="1180" cy="80" r="120" fill="#4fc3f7" opacity="0.05" />
  <circle cx="100" cy="650" r="80" fill="#1a73e8" opacity="0.03" />
  <line x1="0" y1="140" x2="1280" y2="140" stroke="#e0e7ff" stroke-width="1" />

  
  <g id="header">
    <text x="80" y="100" font-family="Arial, Helvetica, sans-serif" font-size="36" font-weight="bold" fill="#1a73e8">05 应用场景与选型指南</text>
    <line x1="80" y1="125" x2="320" y2="125" stroke="#4fc3f7" stroke-width="4" />
    <text x="640" y="185" font-family="Arial, Helvetica, sans-serif" font-size="28" font-weight="normal" fill="#333333" text-anchor="middle">什么场景选谁？</text>
  </g>

  
  <g id="left-column">
    <path fill="#ffffff" stroke="#e0e7ff" stroke-width="1" d="M96,220 H584 A16,16 0 0 1 600,236 V664 A16,16 0 0 1 584,680 H96 A16,16 0 0 1 80,664 V236 A16,16 0 0 1 96,220 Z" />
    <path fill="#1a73e8" d="M96,220 H584 A16,16 0 0 1 600,236 V264 A16,16 0 0 1 584,280 H96 A16,16 0 0 1 80,264 V236 A16,16 0 0 1 96,220 Z" />
    <text x="110" y="258" font-family="Arial, Helvetica, sans-serif" font-size="24" font-weight="bold" fill="#ffffff">场景一：高并发 / 实时计算</text>
    
    <text x="110" y="310" font-family="Arial, Helvetica, sans-serif" font-size="16" font-weight="bold" fill="#1a73e8">适用场景：</text>
    <text x="110" y="340" font-family="Arial, Helvetica, sans-serif" font-size="15" fill="#333333">• 海量日志实时采集与分析</text>
    <text x="110" y="370" font-family="Arial, Helvetica, sans-serif" font-size="15" fill="#333333">• 金融交易高频撮合系统</text>
    <text x="110" y="400" font-family="Arial, Helvetica, sans-serif" font-size="15" fill="#333333">• IoT设备毫秒级指令下发</text>
    
    <text x="110" y="450" font-family="Arial, Helvetica, sans-serif" font-size="16" font-weight="bold" fill="#1a73e8">核心指标评估：</text>
    
    
    <path fill="#f5f8fe" d="M118,470 H562 A8,8 0 0 1 570,478 V562 A8,8 0 0 1 562,570 H118 A8,8 0 0 1 110,562 V478 A8,8 0 0 1 118,470 Z" />
    <line x1="110" y1="470" x2="570" y2="470" stroke="#e0e7ff" stroke-width="1" />
    <line x1="110" y1="500" x2="570" y2="500" stroke="#e0e7ff" stroke-width="1" />
    <line x1="110" y1="530" x2="570" y2="530" stroke="#e0e7ff" stroke-width="1" />
    <line x1="110" y1="560" x2="570" y2="560" stroke="#e0e7ff" stroke-width="1" />
    <line x1="300" y1="470" x2="300" y2="560" stroke="#e0e7ff" stroke-width="1" />
    
    <text x="130" y="495" font-family="Arial, Helvetica, sans-serif" font-size="14" fill="#666666">吞吐量 (TPS)</text>
    <text x="130" y="525" font-family="Arial, Helvetica, sans-serif" font-size="14" fill="#666666">延迟 (ms)</text>
    <text x="130" y="555" font-family="Arial, Helvetica, sans-serif" font-size="14" fill="#666666">扩展性</text>
    
    <text x="320" y="495" font-family="Arial, Helvetica, sans-serif" font-size="14" fill="#1a73e8" font-weight="bold">★★★★★</text>
    <text x="320" y="525" font-family="Arial, Helvetica, sans-serif" font-size="14" fill="#1a73e8" font-weight="bold">★★★★★</text>
    <text x="320" y="555" font-family="Arial, Helvetica, sans-serif" font-size="14" fill="#1a73e8" font-weight="bold">★★★★☆</text>
  </g>

  
  <g id="right-column">
    <path fill="#ffffff" stroke="#e0e7ff" stroke-width="1" d="M696,220 H1184 A16,16 0 0 1 1200,236 V664 A16,16 0 0 1 1184,680 H696 A16,16 0 0 1 680,664 V236 A16,16 0 0 1 696,220 Z" />
    <path fill="#1a73e8" d="M696,220 H1184 A16,16 0 0 1 1200,236 V264 A16,16 0 0 1 1184,280 H696 A16,16 0 0 1 680,264 V236 A16,16 0 0 1 696,220 Z" />
    <text x="710" y="258" font-family="Arial, Helvetica, sans-serif" font-size="24" font-weight="bold" fill="#ffffff">场景二：复杂业务 / 数据分析</text>
    
    <text x="710" y="310" font-family="Arial, Helvetica, sans-serif" font-size="16" font-weight="bold" fill="#1a73e8">适用场景：</text>
    <text x="710" y="340" font-family="Arial, Helvetica, sans-serif" font-size="15" fill="#333333">• 电商订单全链路追踪</text>
    <text x="710" y="370" font-family="Arial, Helvetica, sans-serif" font-size="15" fill="#333333">• 用户画像与精准营销</text>
    <text x="710" y="400" font-family="Arial, Helvetica, sans-serif" font-size="15" fill="#333333">• 跨域数据仓库与报表</text>
    
    <text x="710" y="450" font-family="Arial, Helvetica, sans-serif" font-size="16" font-weight="bold" fill="#1a73e8">核心指标评估：</text>
    
    
    <path fill="#f5f8fe" d="M718,470 H1162 A8,8 0 0 1 1170,478 V562 A8,8 0 0 1 1162,570 H718 A8,8 0 0 1 710,562 V478 A8,8 0 0 1 718,470 Z" />
    <line x1="710" y1="470" x2="1170" y2="470" stroke="#e0e7ff" stroke-width="1" />
    <line x1="710" y1="500" x2="1170" y2="500" stroke="#e0e7ff" stroke-width="1" />
    <line x1="710" y1="530" x2="1170" y2="530" stroke="#e0e7ff" stroke-width="1" />
    <line x1="710" y1="560" x2="1170" y2="560" stroke="#e0e7ff" stroke-width="1" />
    <line x1="900" y1="470" x2="900" y2="560" stroke="#e0e7ff" stroke-width="1" />
    
    <text x="730" y="495" font-family="Arial, Helvetica, sans-serif" font-size="14" fill="#666666">吞吐量 (TPS)</text>
    <text x="730" y="525" font-family="Arial, Helvetica, sans-serif" font-size="14" fill="#666666">延迟 (ms)</text>
    <text x="730" y="555" font-family="Arial, Helvetica, sans-serif" font-size="14" fill="#666666">扩展性</text>
    
    <text x="920" y="495" font-family="Arial, Helvetica, sans-serif" font-size="14" fill="#1a73e8" font-weight="bold">★★★☆☆</text>
    <text x="920" y="525" font-family="Arial, Helvetica, sans-serif" font-size="14" fill="#1a73e8" font-weight="bold">★★★★★</text>
    <text x="920" y="555" font-family="Arial, Helvetica, sans-serif" font-size="14" fill="#1a73e8" font-weight="bold">★★★★★</text>
  </g>

  
  <g id="footer">
    <text x="1200" y="690" font-family="Arial, Helvetica, sans-serif" font-size="14" fill="#999999" text-anchor="end">15 / 21</text>
    <line x1="80" y1="680" x2="1200" y2="680" stroke="#e0e7ff" stroke-width="1" />
  </g>
</svg>