<svg xmlns="http://www.w3.org/2000/svg" viewBox="0 0 1280 720">
  <rect width="1280" height="720" fill="#f5f8fe"/>
  
  <g id="decorations">
    <circle cx="950" cy="300" r="240" fill="none" stroke="#1a73e8" stroke-width="1" stroke-dasharray="10 10" opacity="0.15"/>
    <circle cx="950" cy="300" r="170" fill="none" stroke="#4fc3f7" stroke-width="1" stroke-dasharray="6 6" opacity="0.25"/>
    <circle cx="950" cy="300" r="100" fill="#1a73e8" opacity="0.04"/>
    
    <line x1="780" y1="220" x2="980" y2="180" stroke="#4fc3f7" stroke-width="2" opacity="0.4"/>
    <line x1="980" y1="180" x2="1080" y2="320" stroke="#4fc3f7" stroke-width="2" opacity="0.4"/>
    <line x1="1080" y1="320" x2="920" y2="380" stroke="#4fc3f7" stroke-width="2" opacity="0.4"/>
    <line x1="920" y1="380" x2="780" y2="220" stroke="#4fc3f7" stroke-width="2" opacity="0.4"/>
    <line x1="780" y1="220" x2="920" y2="380" stroke="#1a73e8" stroke-width="2" opacity="0.3"/>
    <line x1="980" y1="180" x2="1080" y2="320" stroke="#1a73e8" stroke-width="2" opacity="0.3"/>
    
    <circle cx="780" cy="220" r="7" fill="#1a73e8" opacity="0.8"/>
    <circle cx="980" cy="180" r="11" fill="#4fc3f7" opacity="0.9"/>
    <circle cx="1080" cy="320" r="6" fill="#1a73e8" opacity="0.7"/>
    <circle cx="920" cy="380" r="9" fill="#4fc3f7" opacity="0.8"/>
    
    <line x1="120" y1="60" x2="120" y2="180" stroke="#1a73e8" stroke-width="3" opacity="0.2"/>
    <line x1="100" y1="80" x2="140" y2="80" stroke="#1a73e8" stroke-width="3" opacity="0.2"/>
  </g>
  
  <g id="title-section">
    <text x="120" y="270" font-family="Arial, Helvetica, sans-serif" font-size="150" font-weight="bold" fill="#4fc3f7">06</text>
    <text x="120" y="370" font-family="Arial, Helvetica, sans-serif" font-size="68" font-weight="bold" fill="#1a73e8">GraphRAG：融合之道</text>
    <line x1="120" y1="410" x2="260" y2="410" stroke="#1a73e8" stroke-width="4"/>
    <text x="120" y="470" font-family="Arial, Helvetica, sans-serif" font-size="44" font-weight="normal" fill="#333333">1+1 &gt; 2 的进化方向</text>
  </g>
  
  <g id="page-info">
    <text x="1180" y="680" font-family="Arial, Helvetica, sans-serif" font-size="24" font-weight="normal" fill="#999999" text-anchor="end">17 / 21</text>
  </g>
</svg>