<svg xmlns="http://www.w3.org/2000/svg" viewBox="0 0 1280 720" width="100%" height="100%">
  <defs>
    <radialGradient id="bgGrad" cx="50%" cy="40%" r="75%">
      <stop offset="0%" stop-color="#1E293B" />
      <stop offset="100%" stop-color="#0B1120" />
    </radialGradient>
    <linearGradient id="accentGrad" x1="0%" y1="0%" x2="100%" y2="0%">
      <stop offset="0%" stop-color="#38BDF8" />
      <stop offset="50%" stop-color="#818CF8" />
      <stop offset="100%" stop-color="#38BDF8" />
    </linearGradient>
  </defs>
  
  <rect width="1280" height="720" fill="url(#bgGrad)" />
  
  <g id="background-network" opacity="0.12">
    <line x1="180" y1="120" x2="320" y2="210" stroke="#475569" stroke-width="2" />
    <line x1="320" y1="210" x2="480" y2="150" stroke="#475569" stroke-width="2" />
    <line x1="480" y1="150" x2="640" y2="240" stroke="#475569" stroke-width="2" />
    <line x1="640" y1="240" x2="800" y2="160" stroke="#475569" stroke-width="2" />
    <line x1="800" y1="160" x2="960" y2="250" stroke="#475569" stroke-width="2" />
    <line x1="960" y1="250" x2="1120" y2="180" stroke="#475569" stroke-width="2" />
    <line x1="180" y1="120" x2="120" y2="320" stroke="#475569" stroke-width="2" />
    <line x1="120" y1="320" x2="260" y2="420" stroke="#475569" stroke-width="2" />
    <line x1="260" y1="420" x2="420" y2="350" stroke="#475569" stroke-width="2" />
    <line x1="420" y1="350" x2="580" y2="450" stroke="#475569" stroke-width="2" />
    <line x1="580" y1="450" x2="740" y2="370" stroke="#475569" stroke-width="2" />
    <line x1="740" y1="370" x2="900" y2="470" stroke="#475569" stroke-width="2" />
    <line x1="900" y1="470" x2="1060" y2="390" stroke="#475569" stroke-width="2" />
    <line x1="1060" y1="390" x2="1180" y2="480" stroke="#475569" stroke-width="2" />
    <circle cx="180" cy="120" r="5" fill="#64748B" />
    <circle cx="320" cy="210" r="7" fill="#64748B" />
    <circle cx="480" cy="150" r="4" fill="#64748B" />
    <circle cx="640" cy="240" r="6" fill="#64748B" />
    <circle cx="800" cy="160" r="5" fill="#64748B" />
    <circle cx="960" cy="250" r="8" fill="#64748B" />
    <circle cx="1120" cy="180" r="4" fill="#64748B" />
    <circle cx="120" cy="320" r="6" fill="#64748B" />
    <circle cx="260" cy="420" r="5" fill="#64748B" />
    <circle cx="420" cy="350" r="7" fill="#64748B" />
    <circle cx="580" cy="450" r="4" fill="#64748B" />
    <circle cx="740" cy="370" r="6" fill="#64748B" />
    <circle cx="900" cy="470" r="5" fill="#64748B" />
    <circle cx="1060" cy="390" r="7" fill="#64748B" />
    <circle cx="1180" cy="480" r="5" fill="#64748B" />
  </g>

  <g id="cover-main">
    <path fill="url(#accentGrad)" d="M522,250 H758 A2,2 0 0 1 760,252 V252 A2,2 0 0 1 758,254 H522 A2,2 0 0 1 520,252 V252 A2,2 0 0 1 522,250 Z" />
    
    <text x="640" y="330" font-family="'PingFang SC', 'Microsoft YaHei', 'Helvetica Neue', Arial, sans-serif" font-size="84" font-weight="bold" fill="#FFFFFF" text-anchor="middle" letter-spacing="12">知识图谱</text>
    
    <text x="640" y="410" font-family="'PingFang SC', 'Microsoft YaHei', 'Helvetica Neue', Arial, sans-serif" font-size="36" fill="#94A3B8" text-anchor="middle" letter-spacing="6">核心技术架构 · 应用落地场景</text>
    
    <text x="640" y="490" font-family="'PingFang SC', 'Microsoft YaHei', 'Helvetica Neue', Arial, sans-serif" font-size="32" fill="#38BDF8" text-anchor="middle" letter-spacing="16">2 0 2 5</text>
  </g>

  <g id="cover-footer">
    <rect x="0" y="712" width="1280" height="8" fill="url(#accentGrad)" />
    <text x="640" y="685" font-family="'PingFang SC', 'Microsoft YaHei', 'Helvetica Neue', Arial, sans-serif" font-size="18" fill="#475569" text-anchor="middle" letter-spacing="4">第 1 页 / 共 9 页</text>
  </g>
</svg>