<svg xmlns="http://www.w3.org/2000/svg" viewBox="0 0 1280 720" width="100%" height="100%">
  <rect width="1280" height="720" fill="#F8FAFC" />
  <rect width="1280" height="6" fill="#2563EB" />
  
  <g id="header">
    <text x="640" y="100" font-family="system-ui, -apple-system, 'Segoe UI', Roboto, 'Helvetica Neue', Arial, sans-serif" font-size="48" font-weight="bold" fill="#0F172A" text-anchor="middle">应用落地场景总览</text>
    <line x1="540" y1="125" x2="740" y2="125" stroke="#2563EB" stroke-width="4" stroke-linecap="round" />
  </g>

  <g id="content-cards">
    <g id="card-1">
      <path fill="#FFFFFF" stroke="#E2E8F0" stroke-width="1" d="M132,200 H428 A12,12 0 0 1 440,212 V348 A12,12 0 0 1 428,360 H132 A12,12 0 0 1 120,348 V212 A12,12 0 0 1 132,200 Z" />
      <circle cx="160" cy="240" r="28" fill="#DBEAFE" />
      <text x="160" y="240" dy="0.35em" font-size="24" text-anchor="middle">🔍</text>
      <text x="210" y="235" font-family="system-ui, -apple-system, 'Segoe UI', Roboto, 'Helvetica Neue', Arial, sans-serif" font-size="22" font-weight="600" fill="#0F172A">智能搜索</text>
      <text x="210" y="265" font-family="system-ui, -apple-system, 'Segoe UI', Roboto, 'Helvetica Neue', Arial, sans-serif" font-size="16" fill="#475569">— 语义理解与实体卡片（如 Google KG）</text>
    </g>

    <g id="card-2">
      <path fill="#FFFFFF" stroke="#E2E8F0" stroke-width="1" d="M492,200 H788 A12,12 0 0 1 800,212 V348 A12,12 0 0 1 788,360 H492 A12,12 0 0 1 480,348 V212 A12,12 0 0 1 492,200 Z" />
      <circle cx="520" cy="240" r="28" fill="#DBEAFE" />
      <text x="520" y="240" dy="0.35em" font-size="24" text-anchor="middle">💬</text>
      <text x="570" y="235" font-family="system-ui, -apple-system, 'Segoe UI', Roboto, 'Helvetica Neue', Arial, sans-serif" font-size="22" font-weight="600" fill="#0F172A">智能问答</text>
      <text x="570" y="265" font-family="system-ui, -apple-system, 'Segoe UI', Roboto, 'Helvetica Neue', Arial, sans-serif" font-size="16" fill="#475569">— KBQA 与对话系统</text>
    </g>

    <g id="card-3">
      <path fill="#FFFFFF" stroke="#E2E8F0" stroke-width="1" d="M852,200 H1148 A12,12 0 0 1 1160,212 V348 A12,12 0 0 1 1148,360 H852 A12,12 0 0 1 840,348 V212 A12,12 0 0 1 852,200 Z" />
      <circle cx="880" cy="240" r="28" fill="#DBEAFE" />
      <text x="880" y="240" dy="0.35em" font-size="24" text-anchor="middle">📈</text>
      <text x="930" y="235" font-family="system-ui, -apple-system, 'Segoe UI', Roboto, 'Helvetica Neue', Arial, sans-serif" font-size="22" font-weight="600" fill="#0F172A">推荐系统</text>
      <text x="930" y="265" font-family="system-ui, -apple-system, 'Segoe UI', Roboto, 'Helvetica Neue', Arial, sans-serif" font-size="16" fill="#475569">— 增强推荐的可解释性与精准度</text>
    </g>

    <g id="card-4">
      <path fill="#FFFFFF" stroke="#E2E8F0" stroke-width="1" d="M312,420 H608 A12,12 0 0 1 620,432 V568 A12,12 0 0 1 608,580 H312 A12,12 0 0 1 300,568 V432 A12,12 0 0 1 312,420 Z" />
      <circle cx="340" cy="460" r="28" fill="#DBEAFE" />
      <text x="340" y="460" dy="0.35em" font-size="24" text-anchor="middle">🛡</text>
      <text x="390" y="455" font-family="system-ui, -apple-system, 'Segoe UI', Roboto, 'Helvetica Neue', Arial, sans-serif" font-size="22" font-weight="600" fill="#0F172A">风险控制</text>
      <text x="390" y="485" font-family="system-ui, -apple-system, 'Segoe UI', Roboto, 'Helvetica Neue', Arial, sans-serif" font-size="16" fill="#475569">— 关联挖掘与反欺诈检测</text>
    </g>

    <g id="card-5">
      <path fill="#FFFFFF" stroke="#E2E8F0" stroke-width="1" d="M672,420 H968 A12,12 0 0 1 980,432 V568 A12,12 0 0 1 968,580 H672 A12,12 0 0 1 660,568 V432 A12,12 0 0 1 672,420 Z" />
      <circle cx="700" cy="460" r="28" fill="#DBEAFE" />
      <text x="700" y="460" dy="0.35em" font-size="24" text-anchor="middle">🏥</text>
      <text x="750" y="455" font-family="system-ui, -apple-system, 'Segoe UI', Roboto, 'Helvetica Neue', Arial, sans-serif" font-size="22" font-weight="600" fill="#0F172A">行业应用</text>
      <text x="750" y="485" font-family="system-ui, -apple-system, 'Segoe UI', Roboto, 'Helvetica Neue', Arial, sans-serif" font-size="16" fill="#475569">— 医疗/金融/法律知识图谱</text>
    </g>
  </g>

  <g id="footer">
    <text x="1220" y="690" font-family="system-ui, -apple-system, 'Segoe UI', Roboto, 'Helvetica Neue', Arial, sans-serif" font-size="16" fill="#94A3B8" text-anchor="end">6 / 9</text>
  </g>
</svg>