<svg xmlns="http://www.w3.org/2000/svg" viewBox="0 0 1280 720" width="100%" height="100%">
  <defs>
    <linearGradient id="bgGrad" x1="0%" y1="0%" x2="100%" y2="100%">
      <stop offset="0%" stop-color="#F8F9FA" />
      <stop offset="100%" stop-color="#E9ECEF" />
    </linearGradient>
    <linearGradient id="accentGrad" x1="0%" y1="0%" x2="100%" y2="0%">
      <stop offset="0%" stop-color="#3498DB" />
      <stop offset="100%" stop-color="#2980B9" />
    </linearGradient>
  </defs>

  <g id="background">
    <rect width="1280" height="720" fill="url(#bgGrad)" />
    <rect x="0" y="0" width="1280" height="10" fill="url(#accentGrad)" />
    <rect x="0" y="710" width="1280" height="10" fill="url(#accentGrad)" />
  </g>

  <g id="decorations">
    <circle cx="640" cy="360" r="220" fill="#FFFFFF" opacity="0.6" />
    <circle cx="640" cy="360" r="200" fill="none" stroke="#BDC3C7" stroke-width="2" stroke-dasharray="12 12" />
    <path fill="#ECF0F1" transform="rotate(45 120 120)" d="M75,60 H165 A15,15 0 0 1 180,75 V165 A15,15 0 0 1 165,180 H75 A15,15 0 0 1 60,165 V75 A15,15 0 0 1 75,60 Z" />
    <path fill="#ECF0F1" transform="rotate(45 1160 600)" d="M1115,540 H1205 A15,15 0 0 1 1220,555 V645 A15,15 0 0 1 1205,660 H1115 A15,15 0 0 1 1100,645 V555 A15,15 0 0 1 1115,540 Z" />
    <circle cx="120" cy="600" r="8" fill="#3498DB" />
    <circle cx="140" cy="600" r="8" fill="#3498DB" />
    <circle cx="160" cy="600" r="8" fill="#3498DB" />
    <circle cx="1120" cy="120" r="8" fill="#3498DB" />
    <circle cx="1140" cy="120" r="8" fill="#3498DB" />
    <circle cx="1160" cy="120" r="8" fill="#3498DB" />
  </g>

  <g id="content">
    <text x="640" y="310" font-family="Arial, Helvetica, sans-serif" font-size="110" font-weight="bold" fill="#2C3E50" text-anchor="middle">谢谢！</text>
    
    <line x1="500" y1="355" x2="780" y2="355" stroke="#3498DB" stroke-width="6" stroke-linecap="round" />
    
    <text x="640" y="440" font-family="Arial, Helvetica, sans-serif" font-size="64" font-weight="bold" fill="#3498DB" text-anchor="middle">Q &amp; A</text>
    
    <text x="640" y="520" font-family="Arial, Helvetica, sans-serif" font-size="36" fill="#7F8C8D" text-anchor="middle">欢迎交流讨论</text>
  </g>

  <g id="footer">
    <text x="1240" y="690" font-family="Arial, Helvetica, sans-serif" font-size="24" fill="#95A5A6" text-anchor="end">9 / 9</text>
  </g>
</svg>