<svg xmlns="http://www.w3.org/2000/svg" viewBox="0 0 1280 720" width="100%" height="100%">
  <defs>
    <radialGradient id="bgGrad" cx="50%" cy="50%" r="65%">
      <stop offset="0%" stop-color="#1a2332"/>
      <stop offset="100%" stop-color="#0f1923"/>
    </radialGradient>
    <linearGradient id="lineGrad" x1="0%" y1="0%" x2="100%" y2="0%">
      <stop offset="0%" stop-color="#00d4ff" stop-opacity="0"/>
      <stop offset="50%" stop-color="#00d4ff" stop-opacity="1"/>
      <stop offset="100%" stop-color="#00d4ff" stop-opacity="0"/>
    </linearGradient>
  </defs>

  <rect width="1280" height="720" fill="url(#bgGrad)"/>

  <g id="tech-grid" stroke="#1a2332" stroke-width="1" opacity="0.35">
    <line x1="0" y1="180" x2="1280" y2="180"/>
    <line x1="0" y1="360" x2="1280" y2="360"/>
    <line x1="0" y1="540" x2="1280" y2="540"/>
    <line x1="320" y1="0" x2="320" y2="720"/>
    <line x1="640" y1="0" x2="640" y2="720"/>
    <line x1="960" y1="0" x2="960" y2="720"/>
  </g>

  <g id="chapter-content">
    <text x="640" y="290" font-family="Arial, Helvetica, sans-serif" font-size="170" font-weight="bold" fill="#00d4ff" text-anchor="middle" letter-spacing="12">02</text>
    
    <text x="640" y="435" font-family="Arial, Helvetica, sans-serif" font-size="52" font-weight="bold" fill="#ffffff" text-anchor="middle" letter-spacing="4">什么是知识图谱？</text>
    
    <text x="640" y="505" font-family="Arial, Helvetica, sans-serif" font-size="26" font-weight="normal" fill="#8e9eab" text-anchor="middle" letter-spacing="2">1. 符号主义的知识组织方式</text>
    
    <line x1="460" y1="565" x2="820" y2="565" stroke="url(#lineGrad)" stroke-width="4" stroke-linecap="round"/>
    <line x1="460" y1="565" x2="820" y2="565" stroke="#00d4ff" stroke-width="12" stroke-linecap="round" opacity="0.25"/>
  </g>

  <g id="corner-frames">
    <path d="M 90 110 L 90 70 L 130 70" fill="none" stroke="#00d4ff" stroke-width="2" opacity="0.7"/>
    <path d="M 1190 610 L 1190 650 L 1150 650" fill="none" stroke="#00d4ff" stroke-width="2" opacity="0.7"/>
    <circle cx="90" cy="110" r="3" fill="#00d4ff" opacity="0.8"/>
    <circle cx="1190" cy="610" r="3" fill="#00d4ff" opacity="0.8"/>
  </g>

  <g id="floating-nodes">
    <circle cx="220" cy="240" r="4" fill="#00d4ff" opacity="0.4"/>
    <circle cx="1060" cy="480" r="5" fill="#00d4ff" opacity="0.3"/>
    <line x1="220" y1="240" x2="280" y2="190" stroke="#00d4ff" stroke-width="1" opacity="0.25"/>
    <line x1="1060" y1="480" x2="1000" y2="530" stroke="#00d4ff" stroke-width="1" opacity="0.25"/>
    <polygon points="280,190 285,198 275,198" fill="#00d4ff" opacity="0.3"/>
    <polygon points="1000,530 1005,538 995,538" fill="#00d4ff" opacity="0.3"/>
  </g>

  <g id="page-indicator">
    <text x="1200" y="680" font-family="Arial, Helvetica, sans-serif" font-size="16" font-weight="normal" fill="#8e9eab" text-anchor="end">05 / 21</text>
    <line x1="1020" y1="675" x2="1180" y2="675" stroke="#8e9eab" stroke-width="1" opacity="0.3"/>
  </g>
</svg>