<svg xmlns="http://www.w3.org/2000/svg" viewBox="0 0 1280 720" width="100%" height="100%">
  <defs>
    <linearGradient id="bgGrad" x1="0%" y1="0%" x2="100%" y2="100%">
      <stop offset="0%" stop-color="#0B1120"/>
      <stop offset="100%" stop-color="#1E293B"/>
    </linearGradient>
    <radialGradient id="glowGrad" cx="50%" cy="50%" r="50%">
      <stop offset="0%" stop-color="#3B82F6" stop-opacity="0.15"/>
      <stop offset="100%" stop-color="#3B82F6" stop-opacity="0"/>
    </radialGradient>
    <linearGradient id="accentGrad" x1="0%" y1="0%" x2="100%" y2="0%">
      <stop offset="0%" stop-color="#00D4FF"/>
      <stop offset="100%" stop-color="#3B82F6"/>
    </linearGradient>
  </defs>
  <rect width="1280" height="720" fill="url(#bgGrad)"/>
  <g id="background-elements">
    <circle cx="640" cy="360" r="350" fill="url(#glowGrad)"/>
    <path d="M 0 180 L 1280 180 M 0 540 L 1280 540" stroke="#FFFFFF" stroke-opacity="0.03" stroke-width="1"/>
    <path d="M 200 0 L 200 720 M 1080 0 L 1080 720" stroke="#FFFFFF" stroke-opacity="0.03" stroke-width="1"/>
    <circle cx="150" cy="120" r="3" fill="#00D4FF" opacity="0.4"/>
    <circle cx="1130" cy="600" r="3" fill="#3B82F6" opacity="0.4"/>
    <circle cx="1050" cy="150" r="2" fill="#00D4FF" opacity="0.3"/>
    <circle cx="230" cy="580" r="2" fill="#3B82F6" opacity="0.3"/>
    <path d="M 150 120 L 230 580 M 1130 600 L 1050 150" stroke="#FFFFFF" stroke-opacity="0.05" stroke-width="1" stroke-dasharray="4 4"/>
  </g>
  <g id="main-content">
    <text x="640" y="310" font-family="system-ui, -apple-system, 'Segoe UI', Roboto, 'Helvetica Neue', Arial, sans-serif" font-size="64" font-weight="800" fill="#FFFFFF" text-anchor="middle">AI驱动的企业数字化转型</text>
    <line x1="500" y1="355" x2="780" y2="355" stroke="url(#accentGrad)" stroke-width="5" stroke-linecap="round"/>
    <text x="640" y="410" font-family="system-ui, -apple-system, 'Segoe UI', Roboto, 'Helvetica Neue', Arial, sans-serif" font-size="32" font-weight="400" fill="#94A3B8" text-anchor="middle">2024年战略报告</text>
  </g>
</svg>