<svg xmlns="http://www.w3.org/2000/svg" viewBox="0 0 1280 720" width="100%" height="100%">
  <rect width="1280" height="720" fill="#F8FAFC" />
  <path fill="#3B82F6" d="M82,100 H126 A2,2 0 0 1 128,102 V102 A2,2 0 0 1 126,104 H82 A2,2 0 0 1 80,102 V102 A2,2 0 0 1 82,100 Z" />
  <text x="80" y="80" font-family="system-ui, -apple-system, BlinkMacSystemFont, 'Segoe UI', Roboto, 'Helvetica Neue', Arial, sans-serif" font-size="42" font-weight="bold" fill="#0F172A">经典案例与开源项目</text>

  <g id="card-google">
    <path fill="#FFFFFF" stroke="#E2E8F0" stroke-width="1" d="M92,130 H608 A12,12 0 0 1 620,142 V288 A12,12 0 0 1 608,300 H92 A12,12 0 0 1 80,288 V142 A12,12 0 0 1 92,130 Z" />
    <path fill="#3B82F6" d="M116,150 H116 A16,16 0 0 1 132,166 V166 A16,16 0 0 1 116,182 H116 A16,16 0 0 1 100,166 V166 A16,16 0 0 1 116,150 Z" />
    <text x="116" y="171" font-family="system-ui, sans-serif" font-size="16" font-weight="bold" fill="#FFFFFF" text-anchor="middle">1</text>
    <text x="145" y="175" font-family="system-ui, sans-serif" font-size="20" font-weight="600" fill="#0F172A">Google Knowledge Graph</text>
    <text x="145" y="205" font-family="system-ui, sans-serif" font-size="15" fill="#64748B">搜索引擎的智能引擎，实现语义搜索与实体关联</text>
  </g>

  <g id="card-wikidata">
    <path fill="#FFFFFF" stroke="#E2E8F0" stroke-width="1" d="M672,130 H1188 A12,12 0 0 1 1200,142 V288 A12,12 0 0 1 1188,300 H672 A12,12 0 0 1 660,288 V142 A12,12 0 0 1 672,130 Z" />
    <path fill="#10B981" d="M696,150 H696 A16,16 0 0 1 712,166 V166 A16,16 0 0 1 696,182 H696 A16,16 0 0 1 680,166 V166 A16,16 0 0 1 696,150 Z" />
    <text x="696" y="171" font-family="system-ui, sans-serif" font-size="16" font-weight="bold" fill="#FFFFFF" text-anchor="middle">2</text>
    <text x="725" y="175" font-family="system-ui, sans-serif" font-size="20" font-weight="600" fill="#0F172A">Wikidata</text>
    <text x="725" y="205" font-family="system-ui, sans-serif" font-size="15" fill="#64748B">全球最大的协作知识图谱，支持多语言开放数据</text>
  </g>

  <g id="card-dbpedia">
    <path fill="#FFFFFF" stroke="#E2E8F0" stroke-width="1" d="M92,320 H608 A12,12 0 0 1 620,332 V478 A12,12 0 0 1 608,490 H92 A12,12 0 0 1 80,478 V332 A12,12 0 0 1 92,320 Z" />
    <path fill="#8B5CF6" d="M116,340 H116 A16,16 0 0 1 132,356 V356 A16,16 0 0 1 116,372 H116 A16,16 0 0 1 100,356 V356 A16,16 0 0 1 116,340 Z" />
    <text x="116" y="361" font-family="system-ui, sans-serif" font-size="16" font-weight="bold" fill="#FFFFFF" text-anchor="middle">3</text>
    <text x="145" y="365" font-family="system-ui, sans-serif" font-size="20" font-weight="600" fill="#0F172A">DBpedia</text>
    <text x="145" y="395" font-family="system-ui, sans-serif" font-size="15" fill="#64748B">从 Wikipedia 中结构化抽取，构建 RDF 知识网络</text>
  </g>

  <g id="card-cn-dbpedia">
    <path fill="#FFFFFF" stroke="#E2E8F0" stroke-width="1" d="M672,320 H1188 A12,12 0 0 1 1200,332 V478 A12,12 0 0 1 1188,490 H672 A12,12 0 0 1 660,478 V332 A12,12 0 0 1 672,320 Z" />
    <path fill="#F59E0B" d="M696,340 H696 A16,16 0 0 1 712,356 V356 A16,16 0 0 1 696,372 H696 A16,16 0 0 1 680,356 V356 A16,16 0 0 1 696,340 Z" />
    <text x="696" y="361" font-family="system-ui, sans-serif" font-size="16" font-weight="bold" fill="#FFFFFF" text-anchor="middle">4</text>
    <text x="725" y="365" font-family="system-ui, sans-serif" font-size="20" font-weight="600" fill="#0F172A">CN-DBpedia / 知网</text>
    <text x="725" y="395" font-family="system-ui, sans-serif" font-size="15" fill="#64748B">中文知识图谱代表，聚焦本土化实体与关系抽取</text>
  </g>

  <g id="card-tools">
    <path fill="#FFFFFF" stroke="#E2E8F0" stroke-width="1" d="M92,520 H1188 A12,12 0 0 1 1200,532 V648 A12,12 0 0 1 1188,660 H92 A12,12 0 0 1 80,648 V532 A12,12 0 0 1 92,520 Z" />
    <path fill="#EF4444" d="M116,540 H116 A16,16 0 0 1 132,556 V556 A16,16 0 0 1 116,572 H116 A16,16 0 0 1 100,556 V556 A16,16 0 0 1 116,540 Z" />
    <text x="116" y="561" font-family="system-ui, sans-serif" font-size="16" font-weight="bold" fill="#FFFFFF" text-anchor="middle">5</text>
    <text x="145" y="565" font-family="system-ui, sans-serif" font-size="20" font-weight="600" fill="#0F172A">开源工具生态</text>
    <text x="145" y="600" font-family="system-ui, sans-serif" font-size="15" fill="#64748B">Neo4j · Protégé · Apache Jena · DeepKE</text>
    <path fill="#F1F5F9" d="M157,615 H213 A12,12 0 0 1 225,627 V627 A12,12 0 0 1 213,639 H157 A12,12 0 0 1 145,627 V627 A12,12 0 0 1 157,615 Z" />
    <text x="185" y="632" font-family="system-ui, sans-serif" font-size="12" fill="#475569" text-anchor="middle">图数据库</text>
    <path fill="#F1F5F9" d="M247,615 H303 A12,12 0 0 1 315,627 V627 A12,12 0 0 1 303,639 H247 A12,12 0 0 1 235,627 V627 A12,12 0 0 1 247,615 Z" />
    <text x="275" y="632" font-family="system-ui, sans-serif" font-size="12" fill="#475569" text-anchor="middle">本体编辑</text>
    <path fill="#F1F5F9" d="M337,615 H393 A12,12 0 0 1 405,627 V627 A12,12 0 0 1 393,639 H337 A12,12 0 0 1 325,627 V627 A12,12 0 0 1 337,615 Z" />
    <text x="365" y="632" font-family="system-ui, sans-serif" font-size="12" fill="#475569" text-anchor="middle">RDF框架</text>
    <path fill="#F1F5F9" d="M427,615 H483 A12,12 0 0 1 495,627 V627 A12,12 0 0 1 483,639 H427 A12,12 0 0 1 415,627 V627 A12,12 0 0 1 427,615 Z" />
    <text x="455" y="632" font-family="system-ui, sans-serif" font-size="12" fill="#475569" text-anchor="middle">深度学习</text>
  </g>

  <text x="1200" y="690" font-family="system-ui, sans-serif" font-size="14" fill="#94A3B8" text-anchor="end">8 / 12</text>
</svg>