<svg xmlns="http://www.w3.org/2000/svg" viewBox="0 0 1280 720" width="100%" height="100%">
  <defs>
    
    <radialGradient id="bgGrad" cx="50%" cy="50%" r="70%" fx="50%" fy="50%">
      <stop offset="0%" stop-color="#1E293B" />
      <stop offset="100%" stop-color="#0F172A" />
    </radialGradient>

    
    <linearGradient id="cardGrad" x1="0%" y1="0%" x2="100%" y2="100%">
      <stop offset="0%" stop-color="#334155" stop-opacity="0.6" />
      <stop offset="100%" stop-color="#1E293B" stop-opacity="0.8" />
    </linearGradient>

    
    <filter id="glow" x="-20%" y="-20%" width="140%" height="140%">
      <feGaussianBlur stdDeviation="8" result="blur" />
      <feComposite in="SourceGraphic" in2="blur" operator="over" />
    </filter>
    
    
    <filter id="shadow" x="-10%" y="-10%" width="120%" height="120%">
      <feDropShadow dx="0" dy="4" stdDeviation="4" flood-color="#000000" flood-opacity="0.3" />
    </filter>
  </defs>

  
  <rect width="1280" height="720" fill="url(#bgGrad)" />
  
  
  <g stroke="#334155" stroke-width="1" opacity="0.3">
    <line x1="0" y1="180" x2="1280" y2="180" />
    <line x1="0" y1="400" x2="1280" y2="400" />
    <line x1="0" y1="620" x2="1280" y2="620" />
    <line x1="320" y1="0" x2="320" y2="720" />
    <line x1="640" y1="0" x2="640" y2="720" />
    <line x1="960" y1="0" x2="960" y2="720" />
  </g>

  
  <g id="header">
    <text x="80" y="100" font-family="Arial, Helvetica, sans-serif" font-size="48" font-weight="bold" fill="#FFFFFF" letter-spacing="1">挑战与未来趋势</text>
    <text x="80" y="140" font-family="Arial, Helvetica, sans-serif" font-size="20" fill="#94A3B8">Challenges &amp; Future Trends</text>
    
    
    <line x1="80" y1="160" x2="200" y2="160" stroke="#06B6D4" stroke-width="4" stroke-linecap="round" />
    
    
    <text x="1200" y="100" font-family="Arial, Helvetica, sans-serif" font-size="24" fill="#64748B" text-anchor="end">10 / 12</text>
  </g>

  
  <g id="content-cards">
    
    
    <g transform="translate(80, 200)">
      <path fill="url(#cardGrad)" stroke="#0EA5E9" stroke-width="2" filter="url(#shadow)" d="M12,0 H328 A12,12 0 0 1 340,12 V148 A12,12 0 0 1 328,160 H12 A12,12 0 0 1 0,148 V12 A12,12 0 0 1 12,0 Z" />
      
      <circle cx="40" cy="40" r="24" fill="#0EA5E9" opacity="0.2" />
      <path d="M32 40 L48 40 M40 32 L40 48 M40 40 L40 40" stroke="#0EA5E9" stroke-width="2" fill="none" />
      <path d="M36 36 A 10 10 0 1 1 44 36" stroke="#0EA5E9" stroke-width="2" fill="none" marker-end="url(#arrowhead)" />
      <path d="M44 44 A 10 10 0 1 1 36 44" stroke="#0EA5E9" stroke-width="2" fill="none" marker-end="url(#arrowhead)" />
      
      
      <text x="80" y="45" font-family="Arial, Helvetica, sans-serif" font-size="22" font-weight="bold" fill="#FFFFFF">动态性</text>
      <text x="80" y="75" font-family="Arial, Helvetica, sans-serif" font-size="16" fill="#CBD5E1">知识图谱的实时更新与维护</text>
      <text x="80" y="100" font-family="Arial, Helvetica, sans-serif" font-size="14" fill="#94A3B8">Real-time Update &amp; Maintenance</text>
      
      
      <path fill="#0EA5E9" d="M3,0 H3 A3,3 0 0 1 6,3 V157 A3,3 0 0 1 3,160 H3 A3,3 0 0 1 0,157 V3 A3,3 0 0 1 3,0 Z" />
    </g>

    
    <g transform="translate(470, 200)">
      <path fill="url(#cardGrad)" stroke="#EC4899" stroke-width="2" filter="url(#shadow)" d="M12,0 H328 A12,12 0 0 1 340,12 V148 A12,12 0 0 1 328,160 H12 A12,12 0 0 1 0,148 V12 A12,12 0 0 1 12,0 Z" />
      
      <circle cx="40" cy="40" r="24" fill="#EC4899" opacity="0.2" />
      <path stroke="#EC4899" stroke-width="2" fill="none" d="M32,30 H48 A2,2 0 0 1 50,32 V44 A2,2 0 0 1 48,46 H32 A2,2 0 0 1 30,44 V32 A2,2 0 0 1 32,30 Z" />
      <circle cx="36" cy="38" r="2" fill="#EC4899" />
      <path d="M30 42 L36 36 L42 42" stroke="#EC4899" stroke-width="2" fill="none" />
      
      
      <text x="80" y="45" font-family="Arial, Helvetica, sans-serif" font-size="22" font-weight="bold" fill="#FFFFFF">多模态</text>
      <text x="80" y="75" font-family="Arial, Helvetica, sans-serif" font-size="16" fill="#CBD5E1">融合文本、图像、视频的跨模态知识</text>
      <text x="80" y="100" font-family="Arial, Helvetica, sans-serif" font-size="14" fill="#94A3B8">Cross-modal Knowledge Fusion</text>
      
      
      <path fill="#EC4899" d="M3,0 H3 A3,3 0 0 1 6,3 V157 A3,3 0 0 1 3,160 H3 A3,3 0 0 1 0,157 V3 A3,3 0 0 1 3,0 Z" />
    </g>

    
    <g transform="translate(860, 200)">
      <path fill="url(#cardGrad)" stroke="#8B5CF6" stroke-width="2" filter="url(#shadow)" d="M12,0 H328 A12,12 0 0 1 340,12 V148 A12,12 0 0 1 328,160 H12 A12,12 0 0 1 0,148 V12 A12,12 0 0 1 12,0 Z" />
      
      <circle cx="40" cy="40" r="24" fill="#8B5CF6" opacity="0.2" />
      <circle cx="34" cy="36" r="6" stroke="#8B5CF6" stroke-width="2" fill="none" />
      <circle cx="46" cy="44" r="6" stroke="#8B5CF6" stroke-width="2" fill="none" />
      <line x1="38" y1="38" x2="42" y2="42" stroke="#8B5CF6" stroke-width="2" />
      
      
      <text x="80" y="45" font-family="Arial, Helvetica, sans-serif" font-size="22" font-weight="bold" fill="#FFFFFF">大模型协同</text>
      <text x="80" y="75" font-family="Arial, Helvetica, sans-serif" font-size="16" fill="#CBD5E1">LLM + KG 双向增强</text>
      <text x="80" y="100" font-family="Arial, Helvetica, sans-serif" font-size="14" fill="#94A3B8">Bidirectional Enhancement</text>
      
      
      <path fill="#8B5CF6" d="M3,0 H3 A3,3 0 0 1 6,3 V157 A3,3 0 0 1 3,160 H3 A3,3 0 0 1 0,157 V3 A3,3 0 0 1 3,0 Z" />
    </g>

    
    <g transform="translate(275, 420)">
      <path fill="url(#cardGrad)" stroke="#F59E0B" stroke-width="2" filter="url(#shadow)" d="M12,0 H328 A12,12 0 0 1 340,12 V148 A12,12 0 0 1 328,160 H12 A12,12 0 0 1 0,148 V12 A12,12 0 0 1 12,0 Z" />
      
      <circle cx="40" cy="40" r="24" fill="#F59E0B" opacity="0.2" />
      <path d="M40 30 L42 34 L46 34 L43 37 L44 41 L40 39 L36 41 L37 37 L34 34 L38 34 Z" stroke="#F59E0B" stroke-width="2" fill="none" />
      <circle cx="40" cy="36" r="4" stroke="#F59E0B" stroke-width="2" fill="none" />
      
      
      <text x="80" y="45" font-family="Arial, Helvetica, sans-serif" font-size="22" font-weight="bold" fill="#FFFFFF">自动化</text>
      <text x="80" y="75" font-family="Arial, Helvetica, sans-serif" font-size="16" fill="#CBD5E1">从人工构建到自动化知识获取</text>
      <text x="80" y="100" font-family="Arial, Helvetica, sans-serif" font-size="14" fill="#94A3B8">Automated Knowledge Acquisition</text>
      
      
      <path fill="#F59E0B" d="M3,0 H3 A3,3 0 0 1 6,3 V157 A3,3 0 0 1 3,160 H3 A3,3 0 0 1 0,157 V3 A3,3 0 0 1 3,0 Z" />
    </g>

    
    <g transform="translate(665, 420)">
      <path fill="url(#cardGrad)" stroke="#10B981" stroke-width="2" filter="url(#shadow)" d="M12,0 H328 A12,12 0 0 1 340,12 V148 A12,12 0 0 1 328,160 H12 A12,12 0 0 1 0,148 V12 A12,12 0 0 1 12,0 Z" />
      
      <circle cx="40" cy="40" r="24" fill="#10B981" opacity="0.2" />
      <path d="M32 44 C32 36 36 32 40 32 C44 32 48 36 48 44 L46 48 L34 48 Z" stroke="#10B981" stroke-width="2" fill="none" />
      <line x1="40" y1="50" x2="40" y2="54" stroke="#10B981" stroke-width="2" />
      <line x1="36" y1="54" x2="44" y2="54" stroke="#10B981" stroke-width="2" />
      
      
      <text x="80" y="45" font-family="Arial, Helvetica, sans-serif" font-size="22" font-weight="bold" fill="#FFFFFF">可解释性</text>
      <text x="80" y="75" font-family="Arial, Helvetica, sans-serif" font-size="16" fill="#CBD5E1">利用知识图谱提升 AI 可解释性</text>
      <text x="80" y="100" font-family="Arial, Helvetica, sans-serif" font-size="14" fill="#94A3B8">Enhancing AI Explainability</text>
      
      
      <path fill="#10B981" d="M3,0 H3 A3,3 0 0 1 6,3 V157 A3,3 0 0 1 3,160 H3 A3,3 0 0 1 0,157 V3 A3,3 0 0 1 3,0 Z" />
    </g>

  </g>

  
  <g stroke="#475569" stroke-width="1" stroke-dasharray="4 4" opacity="0.5">
    <line x1="420" y1="280" x2="470" y2="280" />
    <line x1="810" y1="280" x2="860" y2="280" />
    <line x1="250" y1="500" x2="275" y2="500" />
    <line x1="615" y1="500" x2="665" y2="500" />
    <line x1="640" y1="360" x2="640" y2="420" />
  </g>

  
  <g id="footer">
    <line x1="80" y1="680" x2="1200" y2="680" stroke="#334155" stroke-width="1" />
    <text x="80" y="700" font-family="Arial, Helvetica, sans-serif" font-size="14" fill="#64748B">© 2023 Knowledge Graph Technology Report</text>
  </g>
</svg>