<svg xmlns="http://www.w3.org/2000/svg" viewBox="0 0 1280 720" width="100%" height="100%">
  <rect width="1280" height="720" fill="#FFFFFF"/>
  <rect x="0" y="0" width="1280" height="8" fill="#F5F7FA"/>
  
  <g id="decorative-network" opacity="0.12">
    <line x1="820" y1="180" x2="980" y2="130" stroke="#2B7FC3" stroke-width="2"/>
    <line x1="980" y1="130" x2="1140" y2="210" stroke="#2B7FC3" stroke-width="2"/>
    <line x1="980" y1="130" x2="930" y2="290" stroke="#2B7FC3" stroke-width="2"/>
    <line x1="930" y1="290" x2="1080" y2="370" stroke="#2B7FC3" stroke-width="2"/>
    <line x1="1080" y1="370" x2="1030" y2="500" stroke="#2B7FC3" stroke-width="2"/>
    <line x1="1030" y1="500" x2="880" y2="560" stroke="#2B7FC3" stroke-width="2"/>
    <line x1="880" y1="560" x2="980" y2="460" stroke="#2B7FC3" stroke-width="2"/>
    <line x1="980" y1="460" x2="1130" y2="400" stroke="#2B7FC3" stroke-width="2"/>
    <line x1="1140" y1="210" x2="1130" y2="400" stroke="#2B7FC3" stroke-width="1.5"/>
    <line x1="930" y1="290" x2="1030" y2="500" stroke="#2B7FC3" stroke-width="1.5"/>
    
    <circle cx="820" cy="180" r="6" fill="#1A3A5C"/>
    <circle cx="980" cy="130" r="9" fill="#2B7FC3"/>
    <circle cx="1140" cy="210" r="5" fill="#1A3A5C"/>
    <circle cx="930" cy="290" r="7" fill="#2B7FC3"/>
    <circle cx="1080" cy="370" r="6" fill="#1A3A5C"/>
    <circle cx="1030" cy="500" r="8" fill="#2B7FC3"/>
    <circle cx="880" cy="560" r="5" fill="#1A3A5C"/>
    <circle cx="980" cy="460" r="7" fill="#2B7FC3"/>
    <circle cx="1130" cy="400" r="6" fill="#1A3A5C"/>
  </g>

  <g id="cover-content">
    <text x="120" y="270" font-family="Microsoft YaHei, PingFang SC, Arial, sans-serif" font-size="48" font-weight="bold" fill="#1A3A5C">知识图谱</text>
    <text x="120" y="340" font-family="Microsoft YaHei, PingFang SC, Arial, sans-serif" font-size="26" fill="#333333">核心技术架构 · 应用落地场景</text>
    <rect x="120" y="375" width="70" height="4" fill="#2B7FC3"/>
    <text x="120" y="435" font-family="Microsoft YaHei, PingFang SC, Arial, sans-serif" font-size="22" font-weight="bold" fill="#2B7FC3">2025</text>
  </g>
</svg>