<svg xmlns="http://www.w3.org/2000/svg" viewBox="0 0 1280 720" width="100%" height="100%">
  <rect width="1280" height="720" fill="#F8FAFC" />
  <g id="slide-header">
    <text x="640" y="80" font-family="system-ui, -apple-system, 'Segoe UI', Roboto, Helvetica, Arial, sans-serif" font-size="38" font-weight="700" fill="#0F172A" text-anchor="middle">核心技术架构</text>
    <line x1="60" y1="115" x2="1220" y2="115" stroke="#E2E8F0" stroke-width="2" />
  </g>
  <g id="architecture-diagram">
    <g id="card-extraction">
      <path fill="#FFFFFF" stroke="#CBD5E1" stroke-width="1" d="M72,200 H248 A12,12 0 0 1 260,212 V408 A12,12 0 0 1 248,420 H72 A12,12 0 0 1 60,408 V212 A12,12 0 0 1 72,200 Z" />
      <circle cx="160" cy="240" r="22" fill="#EFF6FF" />
      <text x="160" y="248" font-family="sans-serif" font-size="18" font-weight="bold" fill="#2563EB" text-anchor="middle">1</text>
      <text x="160" y="285" font-family="sans-serif" font-size="15" font-weight="600" fill="#0F172A" text-anchor="middle">知识抽取</text>
      <text x="160" y="315" font-family="sans-serif" font-size="12" fill="#475569" text-anchor="middle">• NER实体识别</text>
      <text x="160" y="340" font-family="sans-serif" font-size="12" fill="#475569" text-anchor="middle">• 关系抽取</text>
      <text x="160" y="365" font-family="sans-serif" font-size="12" fill="#475569" text-anchor="middle">• 属性抽取</text>
    </g>
    <g id="card-fusion">
      <path fill="#FFFFFF" stroke="#CBD5E1" stroke-width="1" d="M312,200 H488 A12,12 0 0 1 500,212 V408 A12,12 0 0 1 488,420 H312 A12,12 0 0 1 300,408 V212 A12,12 0 0 1 312,200 Z" />
      <circle cx="400" cy="240" r="22" fill="#EFF6FF" />
      <text x="400" y="248" font-family="sans-serif" font-size="18" font-weight="bold" fill="#2563EB" text-anchor="middle">2</text>
      <text x="400" y="285" font-family="sans-serif" font-size="15" font-weight="600" fill="#0F172A" text-anchor="middle">知识融合</text>
      <text x="400" y="315" font-family="sans-serif" font-size="12" fill="#475569" text-anchor="middle">• 实体对齐</text>
      <text x="400" y="340" font-family="sans-serif" font-size="12" fill="#475569" text-anchor="middle">• 共指消解</text>
      <text x="400" y="365" font-family="sans-serif" font-size="12" fill="#475569" text-anchor="middle">• 冲突消解</text>
    </g>
    <g id="card-storage">
      <path fill="#FFFFFF" stroke="#CBD5E1" stroke-width="1" d="M552,200 H728 A12,12 0 0 1 740,212 V408 A12,12 0 0 1 728,420 H552 A12,12 0 0 1 540,408 V212 A12,12 0 0 1 552,200 Z" />
      <circle cx="640" cy="240" r="22" fill="#EFF6FF" />
      <text x="640" y="248" font-family="sans-serif" font-size="18" font-weight="bold" fill="#2563EB" text-anchor="middle">3</text>
      <text x="640" y="285" font-family="sans-serif" font-size="15" font-weight="600" fill="#0F172A" text-anchor="middle">知识存储</text>
      <text x="640" y="315" font-family="sans-serif" font-size="12" fill="#475569" text-anchor="middle">• 图数据库 (Neo4j / JanusGraph)</text>
      <text x="640" y="340" font-family="sans-serif" font-size="12" fill="#475569" text-anchor="middle">• 图谱建模</text>
      <text x="640" y="365" font-family="sans-serif" font-size="12" fill="#475569" text-anchor="middle">• 索引优化</text>
    </g>
    <g id="card-reasoning">
      <path fill="#FFFFFF" stroke="#CBD5E1" stroke-width="1" d="M792,200 H968 A12,12 0 0 1 980,212 V408 A12,12 0 0 1 968,420 H792 A12,12 0 0 1 780,408 V212 A12,12 0 0 1 792,200 Z" />
      <circle cx="880" cy="240" r="22" fill="#EFF6FF" />
      <text x="880" y="248" font-family="sans-serif" font-size="18" font-weight="bold" fill="#2563EB" text-anchor="middle">4</text>
      <text x="880" y="285" font-family="sans-serif" font-size="15" font-weight="600" fill="#0F172A" text-anchor="middle">知识推理</text>
      <text x="880" y="315" font-family="sans-serif" font-size="12" fill="#475569" text-anchor="middle">• 规则推理</text>
      <text x="880" y="340" font-family="sans-serif" font-size="12" fill="#475569" text-anchor="middle">• 图神经网络</text>
      <text x="880" y="365" font-family="sans-serif" font-size="12" fill="#475569" text-anchor="middle">• 链接预测</text>
    </g>
    <g id="card-update">
      <path fill="#FFFFFF" stroke="#CBD5E1" stroke-width="1" d="M1032,200 H1208 A12,12 0 0 1 1220,212 V408 A12,12 0 0 1 1208,420 H1032 A12,12 0 0 1 1020,408 V212 A12,12 0 0 1 1032,200 Z" />
      <circle cx="1120" cy="240" r="22" fill="#EFF6FF" />
      <text x="1120" y="248" font-family="sans-serif" font-size="18" font-weight="bold" fill="#2563EB" text-anchor="middle">5</text>
      <text x="1120" y="285" font-family="sans-serif" font-size="15" font-weight="600" fill="#0F172A" text-anchor="middle">知识更新</text>
      <text x="1120" y="315" font-family="sans-serif" font-size="12" fill="#475569" text-anchor="middle">• 增量学习</text>
      <text x="1120" y="340" font-family="sans-serif" font-size="12" fill="#475569" text-anchor="middle">• 动态维护</text>
      <text x="1120" y="365" font-family="sans-serif" font-size="12" fill="#475569" text-anchor="middle">• 版本控制</text>
    </g>
    <g id="connectors">
      <line x1="260" y1="310" x2="295" y2="310" stroke="#94A3B8" stroke-width="2" />
      <polygon points="295,306 305,310 295,314" fill="#94A3B8" />
      <line x1="500" y1="310" x2="535" y2="310" stroke="#94A3B8" stroke-width="2" />
      <polygon points="535,306 545,310 535,314" fill="#94A3B8" />
      <line x1="740" y1="310" x2="775" y2="310" stroke="#94A3B8" stroke-width="2" />
      <polygon points="775,306 785,310 775,314" fill="#94A3B8" />
      <line x1="980" y1="310" x2="1015" y2="310" stroke="#94A3B8" stroke-width="2" />
      <polygon points="1015,306 1025,310 1015,314" fill="#94A3B8" />
    </g>
  </g>
  <g id="footer">
    <text x="1220" y="690" font-family="sans-serif" font-size="14" fill="#94A3B8" text-anchor="end">4 / 9</text>
  </g>
</svg>