<svg xmlns="http://www.w3.org/2000/svg" viewBox="0 0 1280 720" width="100%" height="100%">
  <rect width="1280" height="720" fill="#F8FAFC" />
  
  <text x="640" y="90" font-family="system-ui, -apple-system, 'Segoe UI', Roboto, Helvetica, Arial, sans-serif" font-size="38" font-weight="800" fill="#0F172A" text-anchor="middle">关键技术深度解析</text>
  <line x1="480" y1="115" x2="800" y2="115" stroke="#3B82F6" stroke-width="4" stroke-linecap="round" />
  
  <g id="card-1">
    <path fill="#FFFFFF" stroke="#E2E8F0" stroke-width="1" d="M86,150 H614 A16,16 0 0 1 630,166 V394 A16,16 0 0 1 614,410 H86 A16,16 0 0 1 70,394 V166 A16,16 0 0 1 86,150 Z" />
    <circle cx="110" cy="190" r="22" fill="#3B82F6" />
    <text x="110" y="196" font-family="system-ui, -apple-system, sans-serif" font-size="18" font-weight="bold" fill="#FFFFFF" text-anchor="middle">1</text>
    <text x="150" y="195" font-family="system-ui, -apple-system, sans-serif" font-size="22" font-weight="700" fill="#1E293B">知识表示学习</text>
    <text x="150" y="235" font-family="system-ui, -apple-system, sans-serif" font-size="15" fill="#64748B">TransE / RotatE / 图嵌入算法，实现高维语义到低维向量的精准映射。</text>
    <g transform="translate(420, 180)">
      <circle cx="0" cy="0" r="8" fill="#3B82F6" />
      <circle cx="40" cy="-20" r="6" fill="#60A5FA" />
      <circle cx="50" cy="30" r="6" fill="#60A5FA" />
      <circle cx="-30" cy="20" r="6" fill="#60A5FA" />
      <line x1="0" y1="0" x2="40" y2="-20" stroke="#93C5FD" stroke-width="2" />
      <line x1="0" y1="0" x2="50" y2="30" stroke="#93C5FD" stroke-width="2" />
      <line x1="0" y1="0" x2="-30" y2="20" stroke="#93C5FD" stroke-width="2" />
      <line x1="40" y1="-20" x2="50" y2="30" stroke="#93C5FD" stroke-width="1.5" stroke-dasharray="4 2" />
      <line x1="-30" y1="20" x2="50" y2="30" stroke="#93C5FD" stroke-width="1.5" stroke-dasharray="4 2" />
    </g>
  </g>
  
  <g id="card-2">
    <path fill="#FFFFFF" stroke="#E2E8F0" stroke-width="1" d="M666,150 H1194 A16,16 0 0 1 1210,166 V394 A16,16 0 0 1 1194,410 H666 A16,16 0 0 1 650,394 V166 A16,16 0 0 1 666,150 Z" />
    <circle cx="690" cy="190" r="22" fill="#8B5CF6" />
    <text x="690" y="196" font-family="system-ui, -apple-system, sans-serif" font-size="18" font-weight="bold" fill="#FFFFFF" text-anchor="middle">2</text>
    <text x="730" y="195" font-family="system-ui, -apple-system, sans-serif" font-size="22" font-weight="700" fill="#1E293B">图神经网络</text>
    <text x="730" y="235" font-family="system-ui, -apple-system, sans-serif" font-size="15" fill="#64748B">GCN、GAT 在图结构上的应用，通过消息传递捕获拓扑特征。</text>
    <g transform="translate(1000, 180)">
      <circle cx="0" cy="0" r="5" fill="#8B5CF6" />
      <circle cx="20" cy="0" r="5" fill="#8B5CF6" />
      <circle cx="40" cy="0" r="5" fill="#8B5CF6" />
      <circle cx="10" cy="30" r="6" fill="#A78BFA" />
      <circle cx="30" cy="30" r="6" fill="#A78BFA" />
      <circle cx="20" cy="60" r="8" fill="#C4B5FD" />
      <line x1="0" y1="0" x2="10" y2="30" stroke="#DDD6FE" stroke-width="1.5" />
      <line x1="20" y1="0" x2="10" y2="30" stroke="#DDD6FE" stroke-width="1.5" />
      <line x1="20" y1="0" x2="30" y2="30" stroke="#DDD6FE" stroke-width="1.5" />
      <line x1="40" y1="0" x2="30" y2="30" stroke="#DDD6FE" stroke-width="1.5" />
      <line x1="10" y1="30" x2="20" y2="60" stroke="#DDD6FE" stroke-width="1.5" />
      <line x1="30" y1="30" x2="20" y2="60" stroke="#DDD6FE" stroke-width="1.5" />
    </g>
  </g>
  
  <g id="card-3">
    <path fill="#FFFFFF" stroke="#E2E8F0" stroke-width="1" d="M86,430 H614 A16,16 0 0 1 630,446 V674 A16,16 0 0 1 614,690 H86 A16,16 0 0 1 70,674 V446 A16,16 0 0 1 86,430 Z" />
    <circle cx="110" cy="470" r="22" fill="#10B981" />
    <text x="110" y="476" font-family="system-ui, -apple-system, sans-serif" font-size="18" font-weight="bold" fill="#FFFFFF" text-anchor="middle">3</text>
    <text x="150" y="475" font-family="system-ui, -apple-system, sans-serif" font-size="22" font-weight="700" fill="#1E293B">知识图谱补全</text>
    <text x="150" y="515" font-family="system-ui, -apple-system, sans-serif" font-size="15" fill="#64748B">链接预测与缺失关系补全，基于评分函数推理潜在关联。</text>
    <g transform="translate(420, 460)">
      <circle cx="0" cy="0" r="7" fill="#10B981" />
      <circle cx="50" cy="-20" r="7" fill="#10B981" />
      <circle cx="60" cy="30" r="7" fill="#10B981" />
      <circle cx="-20" cy="40" r="7" fill="#10B981" />
      <line x1="0" y1="0" x2="50" y2="-20" stroke="#6EE7B7" stroke-width="2" />
      <line x1="0" y1="0" x2="-20" y2="40" stroke="#6EE7B7" stroke-width="2" />
      <line x1="50" y1="-20" x2="60" y2="30" stroke="#6EE7B7" stroke-width="2" />
      <line x1="-20" y1="40" x2="60" y2="30" stroke="#10B981" stroke-width="2.5" stroke-dasharray="6 4" />
      <circle cx="20" cy="35" r="3" fill="#10B981" />
    </g>
  </g>
  
  <g id="card-4">
    <path fill="#FFFFFF" stroke="#E2E8F0" stroke-width="1" d="M666,430 H1194 A16,16 0 0 1 1210,446 V674 A16,16 0 0 1 1194,690 H666 A16,16 0 0 1 650,674 V446 A16,16 0 0 1 666,430 Z" />
    <circle cx="690" cy="470" r="22" fill="#F59E0B" />
    <text x="690" y="476" font-family="system-ui, -apple-system, sans-serif" font-size="18" font-weight="bold" fill="#FFFFFF" text-anchor="middle">4</text>
    <text x="730" y="475" font-family="system-ui, -apple-system, sans-serif" font-size="22" font-weight="700" fill="#1E293B">大模型融合</text>
    <text x="730" y="515" font-family="system-ui, -apple-system, sans-serif" font-size="15" fill="#64748B">RAG + KG 增强生成式AI的准确性，引入外部事实约束。</text>
    <g transform="translate(1000, 460)">
      <path fill="#FDE68A" stroke="#F59E0B" stroke-width="2" d="M4,0 H26 A4,4 0 0 1 30,4 V36 A4,4 0 0 1 26,40 H4 A4,4 0 0 1 0,36 V4 A4,4 0 0 1 4,0 Z" />
      <line x1="5" y1="10" x2="25" y2="10" stroke="#F59E0B" stroke-width="2" />
      <line x1="5" y1="20" x2="25" y2="20" stroke="#F59E0B" stroke-width="2" />
      <line x1="5" y1="30" x2="25" y2="30" stroke="#F59E0B" stroke-width="2" />
      <path d="M 35 20 Q 60 20 80 20" stroke="#FBBF24" stroke-width="2.5" fill="none" />
      <polygon points="75,16 85,20 75,24" fill="#FBBF24" />
      <circle cx="100" cy="20" r="18" fill="#FEF3C7" stroke="#F59E0B" stroke-width="2" />
      <path d="M 92 15 L 108 15 M 92 20 L 108 20 M 92 25 L 108 25" stroke="#F59E0B" stroke-width="2" stroke-linecap="round" />
      <circle cx="100" cy="20" r="4" fill="#F59E0B" />
    </g>
  </g>
  
  <text x="640" y="700" font-family="system-ui, -apple-system, sans-serif" font-size="14" fill="#94A3B8" text-anchor="middle">第 5 / 9 页</text>
</svg>