<svg xmlns="http://www.w3.org/2000/svg" viewBox="0 0 1280 720" width="100%" height="100%">
  <rect width="1280" height="720" fill="#F8FAFC" />
  <rect x="0" y="0" width="1280" height="6" fill="#2563EB" />
  
  <g id="header">
    <text x="640" y="75" font-family="system-ui, -apple-system, 'Segoe UI', Roboto, Helvetica, Arial, sans-serif" font-size="38" font-weight="700" fill="#0F172A" text-anchor="middle" letter-spacing="1">应用落地场景总览</text>
    <line x1="520" y1="100" x2="760" y2="100" stroke="#2563EB" stroke-width="3" stroke-linecap="round" />
    <text x="640" y="130" font-family="system-ui, -apple-system, 'Segoe UI', Roboto, Helvetica, Arial, sans-serif" font-size="16" fill="#64748B" text-anchor="middle">Knowledge Graph Implementation Scenarios</text>
  </g>

  <g id="cards-container">
    <g id="card-1">
      <path fill="#FFFFFF" stroke="#E2E8F0" stroke-width="1" d="M272,160 H628 A12,12 0 0 1 640,172 V308 A12,12 0 0 1 628,320 H272 A12,12 0 0 1 260,308 V172 A12,12 0 0 1 272,160 Z" />
      <circle cx="300" cy="200" r="26" fill="#EFF6FF" />
      <text x="300" y="208" font-family="system-ui, -apple-system, 'Segoe UI', Roboto, Helvetica, Arial, sans-serif" font-size="26" text-anchor="middle" dominant-baseline="central">🔍</text>
      <text x="345" y="195" font-family="system-ui, -apple-system, 'Segoe UI', Roboto, Helvetica, Arial, sans-serif" font-size="20" font-weight="600" fill="#0F172A">智能搜索</text>
      <line x1="345" y1="205" x2="420" y2="205" stroke="#3B82F6" stroke-width="2" stroke-linecap="round" />
      <text x="345" y="235" font-family="system-ui, -apple-system, 'Segoe UI', Roboto, Helvetica, Arial, sans-serif" font-size="15" fill="#475569">语义理解与实体卡片（如 Google KG）</text>
      <rect x="260" y="310" width="380" height="2" fill="#F1F5F9" />
    </g>

    <g id="card-2">
      <path fill="#FFFFFF" stroke="#E2E8F0" stroke-width="1" d="M692,160 H1048 A12,12 0 0 1 1060,172 V308 A12,12 0 0 1 1048,320 H692 A12,12 0 0 1 680,308 V172 A12,12 0 0 1 692,160 Z" />
      <circle cx="720" cy="200" r="26" fill="#EFF6FF" />
      <text x="720" y="208" font-family="system-ui, -apple-system, 'Segoe UI', Roboto, Helvetica, Arial, sans-serif" font-size="26" text-anchor="middle" dominant-baseline="central">💬</text>
      <text x="765" y="195" font-family="system-ui, -apple-system, 'Segoe UI', Roboto, Helvetica, Arial, sans-serif" font-size="20" font-weight="600" fill="#0F172A">智能问答</text>
      <line x1="765" y1="205" x2="840" y2="205" stroke="#3B82F6" stroke-width="2" stroke-linecap="round" />
      <text x="765" y="235" font-family="system-ui, -apple-system, 'Segoe UI', Roboto, Helvetica, Arial, sans-serif" font-size="15" fill="#475569">KBQA 与对话系统</text>
      <rect x="680" y="310" width="380" height="2" fill="#F1F5F9" />
    </g>

    <g id="card-3">
      <path fill="#FFFFFF" stroke="#E2E8F0" stroke-width="1" d="M272,350 H628 A12,12 0 0 1 640,362 V498 A12,12 0 0 1 628,510 H272 A12,12 0 0 1 260,498 V362 A12,12 0 0 1 272,350 Z" />
      <circle cx="300" cy="390" r="26" fill="#EFF6FF" />
      <text x="300" y="398" font-family="system-ui, -apple-system, 'Segoe UI', Roboto, Helvetica, Arial, sans-serif" font-size="26" text-anchor="middle" dominant-baseline="central">📈</text>
      <text x="345" y="385" font-family="system-ui, -apple-system, 'Segoe UI', Roboto, Helvetica, Arial, sans-serif" font-size="20" font-weight="600" fill="#0F172A">推荐系统</text>
      <line x1="345" y1="395" x2="420" y2="395" stroke="#3B82F6" stroke-width="2" stroke-linecap="round" />
      <text x="345" y="425" font-family="system-ui, -apple-system, 'Segoe UI', Roboto, Helvetica, Arial, sans-serif" font-size="15" fill="#475569">增强推荐的可解释性与精准度</text>
      <rect x="260" y="500" width="380" height="2" fill="#F1F5F9" />
    </g>

    <g id="card-4">
      <path fill="#FFFFFF" stroke="#E2E8F0" stroke-width="1" d="M692,350 H1048 A12,12 0 0 1 1060,362 V498 A12,12 0 0 1 1048,510 H692 A12,12 0 0 1 680,498 V362 A12,12 0 0 1 692,350 Z" />
      <circle cx="720" cy="390" r="26" fill="#EFF6FF" />
      <text x="720" y="398" font-family="system-ui, -apple-system, 'Segoe UI', Roboto, Helvetica, Arial, sans-serif" font-size="26" text-anchor="middle" dominant-baseline="central">🛡</text>
      <text x="765" y="385" font-family="system-ui, -apple-system, 'Segoe UI', Roboto, Helvetica, Arial, sans-serif" font-size="20" font-weight="600" fill="#0F172A">风险控制</text>
      <line x1="765" y1="395" x2="840" y2="395" stroke="#3B82F6" stroke-width="2" stroke-linecap="round" />
      <text x="765" y="425" font-family="system-ui, -apple-system, 'Segoe UI', Roboto, Helvetica, Arial, sans-serif" font-size="15" fill="#475569">关联挖掘与反欺诈检测</text>
      <rect x="680" y="500" width="380" height="2" fill="#F1F5F9" />
    </g>

    <g id="card-5">
      <path fill="#FFFFFF" stroke="#E2E8F0" stroke-width="1" d="M462,540 H818 A12,12 0 0 1 830,552 V688 A12,12 0 0 1 818,700 H462 A12,12 0 0 1 450,688 V552 A12,12 0 0 1 462,540 Z" />
      <circle cx="490" cy="580" r="26" fill="#EFF6FF" />
      <text x="490" y="588" font-family="system-ui, -apple-system, 'Segoe UI', Roboto, Helvetica, Arial, sans-serif" font-size="26" text-anchor="middle" dominant-baseline="central">🏥</text>
      <text x="535" y="575" font-family="system-ui, -apple-system, 'Segoe UI', Roboto, Helvetica, Arial, sans-serif" font-size="20" font-weight="600" fill="#0F172A">行业应用</text>
      <line x1="535" y1="585" x2="610" y2="585" stroke="#3B82F6" stroke-width="2" stroke-linecap="round" />
      <text x="535" y="615" font-family="system-ui, -apple-system, 'Segoe UI', Roboto, Helvetica, Arial, sans-serif" font-size="15" fill="#475569">医疗/金融/法律知识图谱</text>
      <rect x="450" y="680" width="380" height="2" fill="#F1F5F9" />
    </g>
  </g>

  <g id="footer">
    <text x="1240" y="690" font-family="system-ui, -apple-system, 'Segoe UI', Roboto, Helvetica, Arial, sans-serif" font-size="14" fill="#94A3B8" text-anchor="end">6 / 9</text>
    <line x1="100" y1="690" x2="200" y2="690" stroke="#CBD5E1" stroke-width="1" />
  </g>
</svg>