<svg xmlns="http://www.w3.org/2000/svg" viewBox="0 0 1280 720" width="100%" height="100%">
  <g id="background">
    <rect width="1280" height="720" fill="#f5f8fe"/>
    <path d="M0 120 H1280 M0 240 H1280 M0 360 H1280 M0 480 H1280 M0 600 H1280" stroke="#e2eaf6" stroke-width="1" fill="none"/>
    <path d="M160 0 V720 M320 0 V720 M480 0 V720 M640 0 V720 M800 0 V720 M960 0 V720 M1120 0 V720" stroke="#e2eaf6" stroke-width="1" fill="none" opacity="0.4"/>
  </g>
  <g id="decorations">
    <circle cx="1120" cy="180" r="90" fill="#4fc3f7" opacity="0.06"/>
    <circle cx="1120" cy="180" r="55" fill="#1a73e8" opacity="0.08"/>
    <rect x="1095" y="155" width="50" height="50" fill="none" stroke="#1a73e8" stroke-width="2" opacity="0.15"/>
    <line x1="120" y1="660" x2="220" y2="660" stroke="#4fc3f7" stroke-width="4" stroke-linecap="round"/>
    <polygon points="1240,680 1260,660 1260,700" fill="#1a73e8" opacity="0.1"/>
  </g>
  <g id="title-section">
    <text x="120" y="260" font-family="Arial, Helvetica, sans-serif" font-size="140" font-weight="bold" fill="#1a73e8">07</text>
    <text x="120" y="340" font-family="Arial, Helvetica, sans-serif" font-size="56" font-weight="bold" fill="#2c3e50">总结与展望</text>
    <rect x="120" y="380" width="120" height="6" fill="#4fc3f7"/>
  </g>
  <g id="content-section">
    <text x="120" y="460" font-family="Arial, Helvetica, sans-serif" font-size="36" font-weight="bold" fill="#1a73e8">关键结论</text>
    <rect x="120" y="490" width="80" height="4" fill="#4fc3f7"/>
    
    <circle cx="140" cy="560" r="6" fill="#1a73e8"/>
    <text x="160" y="568" font-family="Arial, Helvetica, sans-serif" font-size="28" fill="#333333">核心指标全面达成预期目标，系统稳定性显著提升。</text>
    
    <circle cx="140" cy="630" r="6" fill="#1a73e8"/>
    <text x="160" y="638" font-family="Arial, Helvetica, sans-serif" font-size="28" fill="#333333">技术架构完成平滑升级，为后续迭代奠定坚实基础。</text>
    
    <circle cx="140" cy="700" r="6" fill="#1a73e8"/>
    <text x="160" y="708" font-family="Arial, Helvetica, sans-serif" font-size="28" fill="#333333">跨部门协同效率优化，数据驱动决策机制初步成型。</text>
  </g>
</svg>