<svg xmlns="http://www.w3.org/2000/svg" viewBox="0 0 1280 720">
  <defs>
    <radialGradient id="bgGrad" cx="50%" cy="50%" r="75%">
      <stop offset="0%" stop-color="#112240" />
      <stop offset="100%" stop-color="#0A192F" />
    </radialGradient>
  </defs>
  
  <rect width="1280" height="720" fill="url(#bgGrad)" />
  
  <g id="network-background" opacity="0.15">
    <line x1="180" y1="160" x2="420" y2="290" stroke="#64FFDA" stroke-width="2" />
    <line x1="420" y1="290" x2="680" y2="210" stroke="#64FFDA" stroke-width="2" />
    <line x1="680" y1="210" x2="920" y2="360" stroke="#64FFDA" stroke-width="2" />
    <line x1="920" y1="360" x2="1080" y2="220" stroke="#64FFDA" stroke-width="2" />
    <line x1="180" y1="160" x2="320" y2="410" stroke="#64FFDA" stroke-width="2" />
    <line x1="320" y1="410" x2="580" y2="510" stroke="#64FFDA" stroke-width="2" />
    <line x1="580" y1="510" x2="820" y2="460" stroke="#64FFDA" stroke-width="2" />
    <line x1="820" y1="460" x2="1020" y2="560" stroke="#64FFDA" stroke-width="2" />
    <line x1="420" y1="290" x2="320" y2="410" stroke="#64FFDA" stroke-width="2" />
    <line x1="680" y1="210" x2="820" y2="460" stroke="#64FFDA" stroke-width="2" />
    <line x1="920" y1="360" x2="1020" y2="560" stroke="#64FFDA" stroke-width="2" />
    <line x1="320" y1="410" x2="580" y2="510" stroke="#64FFDA" stroke-width="2" />
    <line x1="580" y1="510" x2="820" y2="460" stroke="#64FFDA" stroke-width="2" />
    
    <circle cx="180" cy="160" r="7" fill="#64FFDA" />
    <circle cx="420" cy="290" r="11" fill="#64FFDA" />
    <circle cx="680" cy="210" r="6" fill="#64FFDA" />
    <circle cx="920" cy="360" r="9" fill="#64FFDA" />
    <circle cx="1080" cy="220" r="5" fill="#64FFDA" />
    <circle cx="320" cy="410" r="8" fill="#64FFDA" />
    <circle cx="580" cy="510" r="7" fill="#64FFDA" />
    <circle cx="820" cy="460" r="10" fill="#64FFDA" />
    <circle cx="1020" cy="560" r="6" fill="#64FFDA" />
    <circle cx="500" cy="350" r="4" fill="#64FFDA" />
    <circle cx="750" cy="400" r="5" fill="#64FFDA" />
    <circle cx="250" cy="550" r="4" fill="#64FFDA" />
  </g>
  
  <g id="cover-content">
    <path fill="#64FFDA" d="M522,230 H758 A2,2 0 0 1 760,232 V232 A2,2 0 0 1 758,234 H522 A2,2 0 0 1 520,232 V232 A2,2 0 0 1 522,230 Z" />
    
    <text x="640" y="305" font-family="Arial, Helvetica, sans-serif" font-size="84" font-weight="bold" fill="#FFFFFF" text-anchor="middle" letter-spacing="6">知识图谱</text>
    
    <text x="640" y="385" font-family="Arial, Helvetica, sans-serif" font-size="34" fill="#CCD6F6" text-anchor="middle" letter-spacing="3">核心技术架构 · 应用落地场景</text>
    
    <text x="640" y="465" font-family="Arial, Helvetica, sans-serif" font-size="30" fill="#8892B0" text-anchor="middle" letter-spacing="8">2 0 2 5</text>
    
    <path fill="#8892B0" d="M581,505 H699 A1,1 0 0 1 700,506 V506 A1,1 0 0 1 699,507 H581 A1,1 0 0 1 580,506 V506 A1,1 0 0 1 581,505 Z" />
  </g>
</svg>