<svg xmlns="http://www.w3.org/2000/svg" viewBox="0 0 1280 720" width="100%" height="100%">
  <defs>
    <linearGradient id="bgGrad" x1="0" y1="0" x2="0" y2="1">
      <stop offset="0%" stop-color="#F8FAFC" />
      <stop offset="100%" stop-color="#EFF6FF" />
    </linearGradient>
  </defs>

  <rect width="1280" height="720" fill="url(#bgGrad)" />

  <rect width="1280" height="100" fill="#0F172A" />
  <text x="80" y="62" font-family="system-ui, -apple-system, BlinkMacSystemFont, 'Segoe UI', Roboto, 'Helvetica Neue', Arial, sans-serif" font-size="34" font-weight="bold" fill="#FFFFFF">应用落地场景总览</text>
  <line x1="80" y1="82" x2="280" y2="82" stroke="#3B82F6" stroke-width="4" />
  <text x="1200" y="62" font-family="system-ui, -apple-system, BlinkMacSystemFont, 'Segoe UI', Roboto, 'Helvetica Neue', Arial, sans-serif" font-size="20" fill="#94A3B8" text-anchor="end">6 / 9</text>

  <g id="card-search">
    <path fill="#FFFFFF" stroke="#E2E8F0" stroke-width="1.5" d="M110,140 H430 A10,10 0 0 1 440,150 V330 A10,10 0 0 1 430,340 H110 A10,10 0 0 1 100,330 V150 A10,10 0 0 1 110,140 Z" />
    <path fill="#3B82F6" d="M103,140 H437 A3,3 0 0 1 440,143 V143 A3,3 0 0 1 437,146 H103 A3,3 0 0 1 100,143 V143 A3,3 0 0 1 103,140 Z" />
    <circle cx="140" cy="190" r="22" fill="#DBEAFE" />
    <text x="140" y="198" font-family="system-ui, -apple-system, BlinkMacSystemFont, 'Segoe UI', Roboto, 'Helvetica Neue', Arial, sans-serif" font-size="22" text-anchor="middle" fill="#1E40AF">🔍</text>
    <text x="180" y="190" font-family="system-ui, -apple-system, BlinkMacSystemFont, 'Segoe UI', Roboto, 'Helvetica Neue', Arial, sans-serif" font-size="20" font-weight="bold" fill="#0F172A">智能搜索</text>
    <text x="120" y="240" font-family="system-ui, -apple-system, BlinkMacSystemFont, 'Segoe UI', Roboto, 'Helvetica Neue', Arial, sans-serif" font-size="15" fill="#475569">语义理解与实体卡片</text>
    <text x="120" y="265" font-family="system-ui, -apple-system, BlinkMacSystemFont, 'Segoe UI', Roboto, 'Helvetica Neue', Arial, sans-serif" font-size="14" fill="#64748B">（如 Google KG）</text>
  </g>

  <g id="card-qa">
    <path fill="#FFFFFF" stroke="#E2E8F0" stroke-width="1.5" d="M480,140 H800 A10,10 0 0 1 810,150 V330 A10,10 0 0 1 800,340 H480 A10,10 0 0 1 470,330 V150 A10,10 0 0 1 480,140 Z" />
    <path fill="#14B8A6" d="M473,140 H807 A3,3 0 0 1 810,143 V143 A3,3 0 0 1 807,146 H473 A3,3 0 0 1 470,143 V143 A3,3 0 0 1 473,140 Z" />
    <circle cx="510" cy="190" r="22" fill="#CCFBF1" />
    <text x="510" y="198" font-family="system-ui, -apple-system, BlinkMacSystemFont, 'Segoe UI', Roboto, 'Helvetica Neue', Arial, sans-serif" font-size="22" text-anchor="middle" fill="#0F766E">💬</text>
    <text x="550" y="190" font-family="system-ui, -apple-system, BlinkMacSystemFont, 'Segoe UI', Roboto, 'Helvetica Neue', Arial, sans-serif" font-size="20" font-weight="bold" fill="#0F172A">智能问答</text>
    <text x="490" y="240" font-family="system-ui, -apple-system, BlinkMacSystemFont, 'Segoe UI', Roboto, 'Helvetica Neue', Arial, sans-serif" font-size="15" fill="#475569">KBQA 与对话系统</text>
    <text x="490" y="265" font-family="system-ui, -apple-system, BlinkMacSystemFont, 'Segoe UI', Roboto, 'Helvetica Neue', Arial, sans-serif" font-size="14" fill="#64748B">自然语言交互与知识检索</text>
  </g>

  <g id="card-recsys">
    <path fill="#FFFFFF" stroke="#E2E8F0" stroke-width="1.5" d="M850,140 H1170 A10,10 0 0 1 1180,150 V330 A10,10 0 0 1 1170,340 H850 A10,10 0 0 1 840,330 V150 A10,10 0 0 1 850,140 Z" />
    <path fill="#8B5CF6" d="M843,140 H1177 A3,3 0 0 1 1180,143 V143 A3,3 0 0 1 1177,146 H843 A3,3 0 0 1 840,143 V143 A3,3 0 0 1 843,140 Z" />
    <circle cx="880" cy="190" r="22" fill="#EDE9FE" />
    <text x="880" y="198" font-family="system-ui, -apple-system, BlinkMacSystemFont, 'Segoe UI', Roboto, 'Helvetica Neue', Arial, sans-serif" font-size="22" text-anchor="middle" fill="#6D28D9">📈</text>
    <text x="920" y="190" font-family="system-ui, -apple-system, BlinkMacSystemFont, 'Segoe UI', Roboto, 'Helvetica Neue', Arial, sans-serif" font-size="20" font-weight="bold" fill="#0F172A">推荐系统</text>
    <text x="860" y="240" font-family="system-ui, -apple-system, BlinkMacSystemFont, 'Segoe UI', Roboto, 'Helvetica Neue', Arial, sans-serif" font-size="15" fill="#475569">增强推荐的可解释性</text>
    <text x="860" y="265" font-family="system-ui, -apple-system, BlinkMacSystemFont, 'Segoe UI', Roboto, 'Helvetica Neue', Arial, sans-serif" font-size="14" fill="#64748B">与精准度</text>
  </g>

  <g id="card-risk">
    <path fill="#FFFFFF" stroke="#E2E8F0" stroke-width="1.5" d="M295,390 H615 A10,10 0 0 1 625,400 V580 A10,10 0 0 1 615,590 H295 A10,10 0 0 1 285,580 V400 A10,10 0 0 1 295,390 Z" />
    <path fill="#F59E0B" d="M288,390 H622 A3,3 0 0 1 625,393 V393 A3,3 0 0 1 622,396 H288 A3,3 0 0 1 285,393 V393 A3,3 0 0 1 288,390 Z" />
    <circle cx="325" cy="440" r="22" fill="#FEF3C7" />
    <text x="325" y="448" font-family="system-ui, -apple-system, BlinkMacSystemFont, 'Segoe UI', Roboto, 'Helvetica Neue', Arial, sans-serif" font-size="22" text-anchor="middle" fill="#92400E">🛡</text>
    <text x="365" y="440" font-family="system-ui, -apple-system, BlinkMacSystemFont, 'Segoe UI', Roboto, 'Helvetica Neue', Arial, sans-serif" font-size="20" font-weight="bold" fill="#0F172A">风险控制</text>
    <text x="305" y="490" font-family="system-ui, -apple-system, BlinkMacSystemFont, 'Segoe UI', Roboto, 'Helvetica Neue', Arial, sans-serif" font-size="15" fill="#475569">关联挖掘与反欺诈检测</text>
    <text x="305" y="515" font-family="system-ui, -apple-system, BlinkMacSystemFont, 'Segoe UI', Roboto, 'Helvetica Neue', Arial, sans-serif" font-size="14" fill="#64748B">实时风险图谱构建</text>
  </g>

  <g id="card-industry">
    <path fill="#FFFFFF" stroke="#E2E8F0" stroke-width="1.5" d="M665,390 H985 A10,10 0 0 1 995,400 V580 A10,10 0 0 1 985,590 H665 A10,10 0 0 1 655,580 V400 A10,10 0 0 1 665,390 Z" />
    <path fill="#E11D48" d="M658,390 H992 A3,3 0 0 1 995,393 V393 A3,3 0 0 1 992,396 H658 A3,3 0 0 1 655,393 V393 A3,3 0 0 1 658,390 Z" />
    <circle cx="695" cy="440" r="22" fill="#FFE4E6" />
    <text x="695" y="448" font-family="system-ui, -apple-system, BlinkMacSystemFont, 'Segoe UI', Roboto, 'Helvetica Neue', Arial, sans-serif" font-size="22" text-anchor="middle" fill="#9F1239">🏥</text>
    <text x="735" y="440" font-family="system-ui, -apple-system, BlinkMacSystemFont, 'Segoe UI', Roboto, 'Helvetica Neue', Arial, sans-serif" font-size="20" font-weight="bold" fill="#0F172A">行业应用</text>
    <text x="675" y="490" font-family="system-ui, -apple-system, BlinkMacSystemFont, 'Segoe UI', Roboto, 'Helvetica Neue', Arial, sans-serif" font-size="15" fill="#475569">医疗/金融/法律</text>
    <text x="675" y="515" font-family="system-ui, -apple-system, BlinkMacSystemFont, 'Segoe UI', Roboto, 'Helvetica Neue', Arial, sans-serif" font-size="14" fill="#64748B">知识图谱深度赋能</text>
  </g>

  <line x1="100" y1="640" x2="1180" y2="640" stroke="#CBD5E1" stroke-width="1" stroke-dasharray="4 4" />
  <text x="640" y="670" font-family="system-ui, -apple-system, BlinkMacSystemFont, 'Segoe UI', Roboto, 'Helvetica Neue', Arial, sans-serif" font-size="14" fill="#94A3B8" text-anchor="middle">Knowledge Graph Application Scenarios Overview</text>
</svg>